{"glyphs":{"0":{"ha":833,"x_min":0,"x_max":0,"o":"m 417 -14 b 81 458 221 -14 81 125 l 81 486 b 417 958 81 819 221 958 b 753 486 613 958 753 819 l 753 458 b 417 -14 753 125 613 -14 m 194 431 b 417 86 194 188 281 86 b 639 431 553 86 639 188 l 639 514 b 417 858 639 757 553 858 b 194 514 281 858 194 757 l 194 431 "},"1":{"ha":833,"x_min":0,"x_max":0,"o":"m 125 100 l 396 100 l 396 831 l 125 703 l 125 822 l 424 944 l 507 944 l 507 100 l 736 100 l 736 0 l 125 0 "},"2":{"ha":833,"x_min":0,"x_max":0,"o":"m 99 639 b 419 958 110 831 233 958 b 729 664 599 958 729 838 b 507 313 729 528 650 436 l 260 100 l 726 100 l 726 0 l 115 0 l 115 100 l 422 371 b 617 664 561 494 617 561 b 414 858 617 789 535 858 b 213 639 293 858 221 793 l 99 639 "},"3":{"ha":833,"x_min":0,"x_max":0,"o":"m 121 944 l 707 944 l 707 867 l 433 578 b 739 299 622 572 739 467 b 410 -14 739 117 603 -14 b 94 306 222 -14 106 114 l 208 306 b 413 86 217 151 290 86 b 625 292 540 86 625 156 b 417 494 625 422 544 494 l 290 494 l 290 556 l 553 844 l 121 844 "},"4":{"ha":833,"x_min":0,"x_max":0,"o":"m 511 233 l 67 233 l 67 319 l 422 944 l 622 944 l 622 333 l 768 333 l 768 233 l 622 233 l 622 0 l 511 0 m 511 333 l 511 900 l 189 333 "},"5":{"ha":833,"x_min":0,"x_max":0,"o":"m 169 944 l 710 944 l 710 844 l 274 844 l 250 524 b 444 611 288 578 353 611 b 749 306 625 611 749 483 b 419 -14 749 119 613 -14 b 104 278 239 -14 115 108 l 218 278 b 419 86 226 147 299 86 b 635 299 549 86 635 158 b 414 522 635 440 551 522 b 225 424 321 522 256 483 l 128 424 "},"6":{"ha":833,"x_min":0,"x_max":0,"o":"m 424 -14 b 85 431 229 -14 85 124 l 85 486 b 431 958 85 806 236 958 b 735 694 610 958 718 831 l 621 694 b 424 858 611 793 536 858 b 199 514 281 858 199 757 l 199 438 b 447 597 229 531 325 597 b 749 299 611 597 749 475 b 424 -14 749 117 608 -14 m 206 307 b 424 86 206 192 283 86 b 635 292 544 86 635 156 b 417 503 635 422 544 503 b 206 307 292 503 206 428 "},"7":{"ha":833,"x_min":0,"x_max":0,"o":"m 617 844 l 96 844 l 96 944 l 742 944 l 742 881 l 351 0 l 228 0 "},"8":{"ha":833,"x_min":0,"x_max":0,"o":"m 417 -14 b 88 257 224 -14 88 100 b 288 474 88 385 179 447 b 101 701 186 506 101 582 b 417 958 101 850 232 958 b 732 701 601 958 732 850 b 547 499 732 582 649 524 b 746 257 656 467 746 385 b 417 -14 746 100 610 -14 m 201 264 b 417 86 201 147 288 86 b 632 264 546 86 632 147 b 417 439 632 381 546 439 b 201 264 288 439 201 381 m 215 694 b 417 533 215 586 296 533 b 618 694 538 533 618 586 b 417 858 618 803 538 858 b 215 694 296 858 215 803 "},"9":{"ha":833,"x_min":0,"x_max":0,"o":"m 410 958 b 749 514 604 958 749 821 l 749 458 b 403 -14 749 139 597 -14 b 99 250 224 -14 115 114 l 213 250 b 410 86 222 151 297 86 b 635 431 553 86 635 188 l 635 507 b 386 347 604 414 508 347 b 85 646 222 347 85 469 b 410 958 85 828 225 958 m 199 653 b 417 442 199 522 289 442 b 628 638 542 442 628 517 b 410 858 628 753 550 858 b 199 653 289 858 199 789 "}," ":{"ha":306,"x_min":0,"x_max":0,"o":""},"A":{"ha":940,"x_min":0,"x_max":0,"o":"m 896 0 l 776 0 l 674 288 l 269 288 l 168 0 l 49 0 l 392 944 l 553 944 m 638 389 l 526 703 l 474 865 l 468 865 l 415 703 l 304 389 "},"Á":{"ha":940,"x_min":0,"x_max":0,"o":"m 896 0 l 776 0 l 674 288 l 269 288 l 168 0 l 49 0 l 392 944 l 553 944 m 638 389 l 526 703 l 474 865 l 468 865 l 415 703 l 304 389 m 560 1264 l 679 1264 l 526 1042 l 418 1042 "},"Â":{"ha":940,"x_min":0,"x_max":0,"o":"m 896 0 l 776 0 l 674 288 l 269 288 l 168 0 l 49 0 l 392 944 l 553 944 m 403 1264 l 542 1264 l 703 1042 l 604 1042 l 472 1211 l 340 1042 l 242 1042 m 638 389 l 526 703 l 474 865 l 468 865 l 415 703 l 304 389 "},"Ä":{"ha":940,"x_min":0,"x_max":0,"o":"m 896 0 l 776 0 l 674 288 l 269 288 l 168 0 l 49 0 l 392 944 l 553 944 m 292 1193 l 417 1193 l 417 1074 l 292 1074 m 638 389 l 526 703 l 474 865 l 468 865 l 415 703 l 304 389 m 528 1193 l 653 1193 l 653 1074 l 528 1074 "},"À":{"ha":940,"x_min":0,"x_max":0,"o":"m 896 0 l 776 0 l 674 288 l 269 288 l 168 0 l 49 0 l 392 944 l 553 944 m 385 1264 l 526 1042 l 418 1042 l 265 1264 m 638 389 l 526 703 l 474 865 l 468 865 l 415 703 l 304 389 "},"Å":{"ha":940,"x_min":0,"x_max":0,"o":"m 896 0 l 776 0 l 674 288 l 269 288 l 168 0 l 49 0 l 392 944 l 553 944 m 638 389 l 526 703 l 474 865 l 468 865 l 415 703 l 304 389 m 318 1181 b 472 1326 318 1264 385 1326 b 626 1181 560 1326 626 1264 b 472 1035 626 1097 560 1035 b 318 1181 385 1035 318 1097 m 396 1181 b 472 1104 396 1131 422 1104 b 549 1181 522 1104 549 1131 b 472 1257 549 1231 522 1257 b 396 1181 422 1257 396 1231 "},"Ã":{"ha":940,"x_min":0,"x_max":0,"o":"m 896 0 l 776 0 l 674 288 l 269 288 l 168 0 l 49 0 l 392 944 l 553 944 m 235 1072 b 369 1238 238 1174 279 1238 b 474 1200 418 1238 447 1219 l 506 1176 b 575 1146 526 1161 549 1146 b 642 1233 614 1146 639 1178 l 710 1233 b 575 1068 707 1132 665 1068 b 471 1106 526 1068 497 1086 l 439 1129 b 369 1160 418 1144 396 1160 b 303 1072 331 1160 306 1128 l 235 1072 m 638 389 l 526 703 l 474 865 l 468 865 l 415 703 l 304 389 "},"Æ":{"ha":1371,"x_min":0,"x_max":0,"o":"m 551 944 l 1288 944 l 1288 844 l 781 844 l 781 536 l 1246 536 l 1246 436 l 781 436 l 781 100 l 1288 100 l 1288 0 l 669 0 l 669 303 l 340 303 l 188 0 l 63 0 m 669 403 l 669 858 l 622 858 l 392 403 "},"B":{"ha":857,"x_min":0,"x_max":0,"o":"m 111 944 l 458 944 b 753 694 635 944 753 851 b 582 488 753 578 688 514 b 774 261 700 460 774 392 b 465 0 774 97 657 0 l 111 0 m 465 101 b 658 264 588 101 658 163 l 658 278 b 465 438 658 386 588 438 l 224 438 l 224 101 m 458 535 b 638 681 572 535 638 582 l 638 694 b 458 843 638 786 572 843 l 224 843 l 224 535 "},"C":{"ha":913,"x_min":0,"x_max":0,"o":"m 479 -14 b 71 472 240 -14 71 168 b 479 958 71 776 240 958 b 846 639 701 958 824 803 l 731 639 b 479 857 711 767 625 857 b 186 500 296 857 186 714 l 186 444 b 479 88 186 231 296 88 b 731 306 625 88 711 178 l 846 306 b 479 -14 824 142 701 -14 "},"Ç":{"ha":913,"x_min":0,"x_max":0,"o":"m 71 472 b 479 958 71 776 240 958 b 846 639 701 958 824 803 l 731 639 b 479 857 711 767 625 857 b 186 500 296 857 186 714 l 186 444 b 479 88 186 231 296 88 b 731 306 625 88 711 178 l 846 306 b 481 -14 824 142 701 -12 l 454 -53 b 611 -171 544 -56 611 -86 b 444 -292 611 -258 540 -292 l 368 -292 l 368 -214 l 442 -214 b 522 -167 481 -214 522 -208 b 442 -121 522 -126 481 -121 l 368 -121 l 368 -53 l 399 -7 b 71 472 203 29 71 203 "},"D":{"ha":925,"x_min":0,"x_max":0,"o":"m 111 944 l 379 944 b 854 472 650 944 854 781 b 379 0 854 164 650 0 l 111 0 m 379 101 b 739 444 594 101 739 239 l 739 500 b 379 843 739 706 594 843 l 224 843 l 224 101 "},"Ð":{"ha":988,"x_min":0,"x_max":0,"o":"m 174 432 l 42 432 l 42 526 l 174 526 l 174 944 l 442 944 b 917 472 713 944 917 781 b 442 0 917 164 713 0 l 174 0 m 442 101 b 801 444 657 101 801 239 l 801 500 b 442 843 801 706 657 843 l 286 843 l 286 526 l 486 526 l 486 432 l 286 432 l 286 101 "},"E":{"ha":813,"x_min":0,"x_max":0,"o":"m 111 944 l 729 944 l 729 843 l 224 843 l 224 536 l 688 536 l 688 435 l 224 435 l 224 101 l 729 101 l 729 0 l 111 0 "},"É":{"ha":813,"x_min":0,"x_max":0,"o":"m 111 944 l 729 944 l 729 843 l 224 843 l 224 536 l 688 536 l 688 435 l 224 435 l 224 101 l 729 101 l 729 0 l 111 0 m 501 1264 l 621 1264 l 468 1042 l 360 1042 "},"Ê":{"ha":813,"x_min":0,"x_max":0,"o":"m 111 944 l 729 944 l 729 843 l 224 843 l 224 536 l 688 536 l 688 435 l 224 435 l 224 101 l 729 101 l 729 0 l 111 0 m 344 1264 l 483 1264 l 644 1042 l 546 1042 l 414 1211 l 282 1042 l 183 1042 "},"Ë":{"ha":813,"x_min":0,"x_max":0,"o":"m 111 944 l 729 944 l 729 843 l 224 843 l 224 536 l 688 536 l 688 435 l 224 435 l 224 101 l 729 101 l 729 0 l 111 0 m 233 1193 l 358 1193 l 358 1074 l 233 1074 m 469 1193 l 594 1193 l 594 1074 l 469 1074 "},"È":{"ha":813,"x_min":0,"x_max":0,"o":"m 111 944 l 729 944 l 729 843 l 224 843 l 224 536 l 688 536 l 688 435 l 224 435 l 224 101 l 729 101 l 729 0 l 111 0 m 326 1264 l 468 1042 l 360 1042 l 207 1264 "},"F":{"ha":792,"x_min":0,"x_max":0,"o":"m 111 944 l 715 944 l 715 843 l 224 843 l 224 522 l 688 522 l 688 421 l 224 421 l 224 0 l 111 0 "},"G":{"ha":963,"x_min":0,"x_max":0,"o":"m 481 -14 b 71 472 242 -14 71 168 b 485 958 71 776 247 958 b 856 667 699 958 832 813 l 740 667 b 485 857 718 768 629 857 b 186 500 303 857 186 714 l 186 444 b 481 88 186 231 297 88 b 753 361 647 88 753 203 l 753 399 l 483 399 l 483 494 l 865 494 l 865 0 l 779 0 l 774 181 b 481 -14 731 51 624 -14 "},"H":{"ha":958,"x_min":0,"x_max":0,"o":"m 111 944 l 224 944 l 224 536 l 735 536 l 735 944 l 847 944 l 847 0 l 735 0 l 735 435 l 224 435 l 224 0 l 111 0 "},"I":{"ha":335,"x_min":0,"x_max":0,"o":"m 111 944 l 224 944 l 224 0 l 111 0 "},"Ĳ":{"ha":1032,"x_min":0,"x_max":0,"o":"m 111 944 l 224 944 l 224 0 l 111 0 m 475 278 b 646 86 475 151 543 86 b 813 278 749 86 813 151 l 813 944 l 925 944 l 925 278 b 647 -14 925 78 810 -14 b 369 278 485 -14 369 78 "},"Í":{"ha":335,"x_min":0,"x_max":0,"o":"m 111 944 l 224 944 l 224 0 l 111 0 m 254 1264 l 374 1264 l 221 1042 l 113 1042 "},"Î":{"ha":335,"x_min":0,"x_max":0,"o":"m 111 944 l 224 944 l 224 0 l 111 0 m 97 1264 l 236 1264 l 397 1042 l 299 1042 l 167 1211 l 35 1042 l -64 1042 "},"Ï":{"ha":335,"x_min":0,"x_max":0,"o":"m 111 944 l 224 944 l 224 0 l 111 0 m -14 1193 l 111 1193 l 111 1074 l -14 1074 m 222 1193 l 347 1193 l 347 1074 l 222 1074 "},"Ì":{"ha":335,"x_min":0,"x_max":0,"o":"m 111 944 l 224 944 l 224 0 l 111 0 m 79 1264 l 221 1042 l 113 1042 l -40 1264 "},"J":{"ha":697,"x_min":0,"x_max":0,"o":"m 590 278 b 313 -14 590 78 475 -14 b 35 278 150 -14 35 78 l 140 278 b 311 86 140 151 208 86 b 478 278 414 86 478 151 l 478 944 l 590 944 l 590 278 "},"K":{"ha":808,"x_min":0,"x_max":0,"o":"m 111 944 l 224 944 l 224 488 l 619 944 l 760 944 l 344 481 l 767 0 l 621 0 l 224 471 l 224 0 l 111 0 "},"L":{"ha":729,"x_min":0,"x_max":0,"o":"m 111 944 l 224 944 l 224 101 l 674 101 l 674 0 l 111 0 "},"M":{"ha":1196,"x_min":0,"x_max":0,"o":"m 111 944 l 307 944 l 599 69 l 890 944 l 1085 944 l 1085 0 l 974 0 l 974 703 l 978 874 l 971 875 l 921 711 l 686 0 l 504 0 l 268 711 l 218 875 l 211 874 l 215 703 l 215 0 l 111 0 "},"N":{"ha":972,"x_min":0,"x_max":0,"o":"m 111 944 l 297 944 l 675 240 l 753 88 l 758 89 l 754 260 l 754 944 l 861 944 l 861 0 l 675 0 l 297 707 l 219 860 l 214 858 l 218 688 l 218 0 l 111 0 "},"Ñ":{"ha":972,"x_min":0,"x_max":0,"o":"m 111 944 l 297 944 l 675 240 l 753 88 l 758 89 l 754 260 l 754 944 l 861 944 l 861 0 l 675 0 l 297 707 l 219 860 l 214 858 l 218 688 l 218 0 l 111 0 m 249 1072 b 383 1238 251 1174 293 1238 b 488 1200 432 1238 461 1219 l 519 1176 b 589 1146 540 1161 563 1146 b 656 1233 628 1146 653 1178 l 724 1233 b 589 1068 721 1132 679 1068 b 485 1106 540 1068 511 1086 l 453 1129 b 383 1160 432 1144 410 1160 b 317 1072 344 1160 319 1128 l 249 1072 "},"O":{"ha":953,"x_min":0,"x_max":0,"o":"m 476 -14 b 71 472 240 -14 71 168 b 476 958 71 776 240 958 b 882 472 713 958 882 776 b 476 -14 882 168 713 -14 m 186 444 b 476 88 186 217 297 88 b 767 444 656 88 767 217 l 767 500 b 476 857 767 728 656 857 b 186 500 297 857 186 728 l 186 444 "},"Ó":{"ha":953,"x_min":0,"x_max":0,"o":"m 476 -14 b 71 472 240 -14 71 168 b 476 958 71 776 240 958 b 882 472 713 958 882 776 b 476 -14 882 168 713 -14 m 186 444 b 476 88 186 217 297 88 b 767 444 656 88 767 217 l 767 500 b 476 857 767 728 656 857 b 186 500 297 857 186 728 l 186 444 m 564 1264 l 683 1264 l 531 1042 l 422 1042 "},"Ô":{"ha":953,"x_min":0,"x_max":0,"o":"m 476 -14 b 71 472 240 -14 71 168 b 476 958 71 776 240 958 b 882 472 713 958 882 776 b 476 -14 882 168 713 -14 m 186 444 b 476 88 186 217 297 88 b 767 444 656 88 767 217 l 767 500 b 476 857 767 728 656 857 b 186 500 297 857 186 728 l 186 444 m 407 1264 l 546 1264 l 707 1042 l 608 1042 l 476 1211 l 344 1042 l 246 1042 "},"Ö":{"ha":953,"x_min":0,"x_max":0,"o":"m 476 -14 b 71 472 240 -14 71 168 b 476 958 71 776 240 958 b 882 472 713 958 882 776 b 476 -14 882 168 713 -14 m 186 444 b 476 88 186 217 297 88 b 767 444 656 88 767 217 l 767 500 b 476 857 767 728 656 857 b 186 500 297 857 186 728 l 186 444 m 296 1193 l 421 1193 l 421 1074 l 296 1074 m 532 1193 l 657 1193 l 657 1074 l 532 1074 "},"Ò":{"ha":953,"x_min":0,"x_max":0,"o":"m 476 -14 b 71 472 240 -14 71 168 b 476 958 71 776 240 958 b 882 472 713 958 882 776 b 476 -14 882 168 713 -14 m 186 444 b 476 88 186 217 297 88 b 767 444 656 88 767 217 l 767 500 b 476 857 767 728 656 857 b 186 500 297 857 186 728 l 186 444 m 389 1264 l 531 1042 l 422 1042 l 269 1264 "},"Ø":{"ha":1022,"x_min":0,"x_max":0,"o":"m 497 -14 b 243 78 399 -14 311 18 l 179 0 l 71 0 l 186 140 b 92 472 126 222 92 335 b 497 958 92 776 261 958 b 768 851 604 958 697 921 l 843 944 l 951 944 l 821 785 b 903 472 874 706 903 600 b 497 -14 903 168 733 -14 m 207 444 b 256 225 207 356 224 282 l 703 772 b 497 857 653 828 582 857 b 207 500 318 857 207 728 l 207 444 m 307 157 b 497 88 356 111 421 88 b 788 444 676 88 788 217 l 788 500 b 750 699 788 578 775 644 l 307 157 "},"Õ":{"ha":953,"x_min":0,"x_max":0,"o":"m 476 -14 b 71 472 240 -14 71 168 b 476 958 71 776 240 958 b 882 472 713 958 882 776 b 476 -14 882 168 713 -14 m 186 444 b 476 88 186 217 297 88 b 767 444 656 88 767 217 l 767 500 b 476 857 767 728 656 857 b 186 500 297 857 186 728 l 186 444 m 239 1072 b 374 1238 242 1174 283 1238 b 478 1200 422 1238 451 1219 l 510 1176 b 579 1146 531 1161 553 1146 b 646 1233 618 1146 643 1178 l 714 1233 b 579 1068 711 1132 669 1068 b 475 1106 531 1068 501 1086 l 443 1129 b 374 1160 422 1144 400 1160 b 307 1072 335 1160 310 1128 l 239 1072 "},"Œ":{"ha":1431,"x_min":0,"x_max":0,"o":"m 471 -14 b 71 472 238 -14 71 182 b 471 958 71 763 238 958 b 757 776 607 958 701 892 l 757 944 l 1347 944 l 1347 844 l 863 844 l 863 536 l 1306 536 l 1306 436 l 863 436 l 863 100 l 1347 100 l 1347 0 l 757 0 l 757 168 b 471 -14 701 53 607 -14 m 185 431 b 471 89 185 217 294 89 b 757 431 647 89 757 217 l 757 514 b 471 856 757 728 647 856 b 185 514 294 856 185 728 l 185 431 "},"P":{"ha":792,"x_min":0,"x_max":0,"o":"m 111 944 l 424 944 b 746 654 617 944 746 832 b 424 364 746 476 617 364 l 224 364 l 224 0 l 111 0 m 424 465 b 631 647 549 465 631 531 l 631 661 b 424 843 631 778 549 843 l 224 843 l 224 465 "},"Þ":{"ha":819,"x_min":0,"x_max":0,"o":"m 111 944 l 222 944 l 222 776 l 451 776 b 774 486 644 776 774 664 b 451 196 774 308 644 196 l 222 196 l 222 0 l 111 0 m 451 296 b 660 472 590 296 660 363 l 660 500 b 451 676 660 610 590 676 l 222 676 l 222 296 "},"Q":{"ha":953,"x_min":0,"x_max":0,"o":"m 465 -14 b 71 472 235 -8 71 172 b 476 958 71 776 240 958 b 882 472 713 958 882 776 b 481 -14 882 169 714 -11 l 854 -81 l 854 -176 l 465 -104 m 186 444 b 476 88 186 217 297 88 b 767 444 656 88 767 217 l 767 500 b 476 857 767 728 656 857 b 186 500 297 857 186 728 l 186 444 "},"R":{"ha":850,"x_min":0,"x_max":0,"o":"m 111 944 l 465 944 b 774 661 644 944 774 836 b 518 381 774 504 669 400 l 792 0 l 653 0 l 394 378 l 224 378 l 224 0 l 111 0 m 465 479 b 658 654 576 479 658 538 l 658 668 b 465 843 658 785 576 843 l 224 843 l 224 479 "},"S":{"ha":858,"x_min":0,"x_max":0,"o":"m 344 436 b 103 693 213 472 103 546 b 431 958 103 856 236 958 b 769 667 654 958 758 818 l 657 667 b 422 858 653 767 593 858 b 217 701 288 858 217 803 b 369 547 217 608 276 572 l 514 508 b 756 251 646 472 756 399 b 431 -14 756 89 626 -14 b 89 278 204 -14 100 126 l 201 278 b 436 86 206 178 265 86 b 642 243 571 86 642 142 b 489 397 642 336 585 371 l 344 436 "},"Š":{"ha":858,"x_min":0,"x_max":0,"o":"m 344 436 b 103 693 213 472 103 546 b 431 958 103 856 236 958 b 769 667 654 958 758 818 l 657 667 b 422 858 653 767 593 858 b 217 701 288 858 217 803 b 369 547 217 608 276 572 l 514 508 b 756 251 646 472 756 399 b 431 -14 756 89 626 -14 b 89 278 204 -14 100 126 l 201 278 b 436 86 206 178 265 86 b 642 243 571 86 642 142 b 489 397 642 336 585 371 l 344 436 m 297 1264 l 429 1094 l 561 1264 l 660 1264 l 499 1042 l 360 1042 l 199 1264 "},"ẞ":{"ha":901,"x_min":0,"x_max":0,"o":"m 111 944 l 772 944 l 772 867 l 510 550 b 818 285 700 546 818 446 b 489 0 818 111 682 0 l 333 0 l 333 103 l 492 103 b 704 285 619 103 704 163 b 496 467 704 401 624 467 l 369 467 l 369 528 l 626 844 l 222 844 l 222 0 l 111 0 "},"T":{"ha":831,"x_min":0,"x_max":0,"o":"m 358 843 l 50 843 l 50 944 l 781 944 l 781 843 l 471 843 l 471 0 l 358 0 "},"U":{"ha":922,"x_min":0,"x_max":0,"o":"m 461 -14 b 107 375 254 -14 107 108 l 107 944 l 221 944 l 221 375 b 461 88 221 183 313 88 b 704 375 610 88 704 183 l 704 944 l 815 944 l 815 375 b 461 -14 815 108 668 -14 "},"Ú":{"ha":922,"x_min":0,"x_max":0,"o":"m 461 -14 b 107 375 254 -14 107 108 l 107 944 l 221 944 l 221 375 b 461 88 221 183 313 88 b 704 375 610 88 704 183 l 704 944 l 815 944 l 815 375 b 461 -14 815 108 668 -14 m 549 1264 l 668 1264 l 515 1042 l 407 1042 "},"Û":{"ha":922,"x_min":0,"x_max":0,"o":"m 461 -14 b 107 375 254 -14 107 108 l 107 944 l 221 944 l 221 375 b 461 88 221 183 313 88 b 704 375 610 88 704 183 l 704 944 l 815 944 l 815 375 b 461 -14 815 108 668 -14 m 392 1264 l 531 1264 l 692 1042 l 593 1042 l 461 1211 l 329 1042 l 231 1042 "},"Ü":{"ha":922,"x_min":0,"x_max":0,"o":"m 461 -14 b 107 375 254 -14 107 108 l 107 944 l 221 944 l 221 375 b 461 88 221 183 313 88 b 704 375 610 88 704 183 l 704 944 l 815 944 l 815 375 b 461 -14 815 108 668 -14 m 281 1193 l 406 1193 l 406 1074 l 281 1074 m 517 1193 l 642 1193 l 642 1074 l 517 1074 "},"Ù":{"ha":922,"x_min":0,"x_max":0,"o":"m 461 -14 b 107 375 254 -14 107 108 l 107 944 l 221 944 l 221 375 b 461 88 221 183 313 88 b 704 375 610 88 704 183 l 704 944 l 815 944 l 815 375 b 461 -14 815 108 668 -14 m 374 1264 l 515 1042 l 407 1042 l 254 1264 "},"V":{"ha":918,"x_min":0,"x_max":0,"o":"m 49 944 l 168 944 l 407 246 l 458 82 l 464 82 l 515 246 l 753 944 l 869 944 l 544 0 l 375 0 "},"W":{"ha":1340,"x_min":0,"x_max":0,"o":"m 933 240 l 971 74 l 976 74 l 1013 242 l 1181 944 l 1292 944 l 1064 0 l 881 0 l 710 694 l 672 863 l 667 863 l 629 694 l 458 0 l 278 0 l 49 944 l 165 944 l 333 242 l 369 74 l 375 74 l 413 240 l 588 944 l 758 944 "},"Ẃ":{"ha":1340,"x_min":0,"x_max":0,"o":"m 933 240 l 971 74 l 976 74 l 1013 242 l 1181 944 l 1292 944 l 1064 0 l 881 0 l 710 694 l 672 863 l 667 863 l 629 694 l 458 0 l 278 0 l 49 944 l 165 944 l 333 242 l 369 74 l 375 74 l 413 240 l 588 944 l 758 944 m 758 1264 l 878 1264 l 725 1042 l 617 1042 "},"Ŵ":{"ha":1340,"x_min":0,"x_max":0,"o":"m 933 240 l 971 74 l 976 74 l 1013 242 l 1181 944 l 1292 944 l 1064 0 l 881 0 l 710 694 l 672 863 l 667 863 l 629 694 l 458 0 l 278 0 l 49 944 l 165 944 l 333 242 l 369 74 l 375 74 l 413 240 l 588 944 l 758 944 m 601 1264 l 740 1264 l 901 1042 l 803 1042 l 671 1211 l 539 1042 l 440 1042 "},"Ẅ":{"ha":1340,"x_min":0,"x_max":0,"o":"m 933 240 l 971 74 l 976 74 l 1013 242 l 1181 944 l 1292 944 l 1064 0 l 881 0 l 710 694 l 672 863 l 667 863 l 629 694 l 458 0 l 278 0 l 49 944 l 165 944 l 333 242 l 369 74 l 375 74 l 413 240 l 588 944 l 758 944 m 490 1193 l 615 1193 l 615 1074 l 490 1074 m 726 1193 l 851 1193 l 851 1074 l 726 1074 "},"Ẁ":{"ha":1340,"x_min":0,"x_max":0,"o":"m 933 240 l 971 74 l 976 74 l 1013 242 l 1181 944 l 1292 944 l 1064 0 l 881 0 l 710 694 l 672 863 l 667 863 l 629 694 l 458 0 l 278 0 l 49 944 l 165 944 l 333 242 l 369 74 l 375 74 l 413 240 l 588 944 l 758 944 m 583 1264 l 725 1042 l 617 1042 l 464 1264 "},"X":{"ha":850,"x_min":0,"x_max":0,"o":"m 49 944 l 175 944 l 340 674 l 424 525 l 429 525 l 513 674 l 676 944 l 800 944 l 503 472 l 801 0 l 675 0 l 511 271 l 428 419 l 422 419 l 339 271 l 174 0 l 50 0 l 347 472 "},"Y":{"ha":849,"x_min":0,"x_max":0,"o":"m 49 944 l 171 944 l 354 564 l 424 408 l 429 408 l 499 564 l 681 944 l 800 944 l 519 375 l 481 375 l 481 0 l 369 0 l 369 375 l 331 375 "},"Ý":{"ha":849,"x_min":0,"x_max":0,"o":"m 49 944 l 171 944 l 354 564 l 424 408 l 429 408 l 499 564 l 681 944 l 800 944 l 519 375 l 481 375 l 481 0 l 369 0 l 369 375 l 331 375 m 513 1264 l 632 1264 l 479 1042 l 371 1042 "},"Ŷ":{"ha":849,"x_min":0,"x_max":0,"o":"m 49 944 l 171 944 l 354 564 l 424 408 l 429 408 l 499 564 l 681 944 l 800 944 l 519 375 l 481 375 l 481 0 l 369 0 l 369 375 l 331 375 m 356 1264 l 494 1264 l 656 1042 l 557 1042 l 425 1211 l 293 1042 l 194 1042 "},"Ÿ":{"ha":849,"x_min":0,"x_max":0,"o":"m 49 944 l 171 944 l 354 564 l 424 408 l 429 408 l 499 564 l 681 944 l 800 944 l 519 375 l 481 375 l 481 0 l 369 0 l 369 375 l 331 375 m 244 1193 l 369 1193 l 369 1074 l 244 1074 m 481 1193 l 606 1193 l 606 1074 l 481 1074 "},"Ỳ":{"ha":849,"x_min":0,"x_max":0,"o":"m 49 944 l 171 944 l 354 564 l 424 408 l 429 408 l 499 564 l 681 944 l 800 944 l 519 375 l 481 375 l 481 0 l 369 0 l 369 375 l 331 375 m 338 1264 l 479 1042 l 371 1042 l 218 1264 "},"Z":{"ha":806,"x_min":0,"x_max":0,"o":"m 90 121 l 601 843 l 90 843 l 90 944 l 715 944 l 715 824 l 204 101 l 715 101 l 715 0 l 90 0 "},"Ž":{"ha":806,"x_min":0,"x_max":0,"o":"m 90 121 l 601 843 l 90 843 l 90 944 l 715 944 l 715 824 l 204 101 l 715 101 l 715 0 l 90 0 m 271 1264 l 403 1094 l 535 1264 l 633 1264 l 472 1042 l 333 1042 l 172 1264 "},"a":{"ha":714,"x_min":0,"x_max":0,"o":"m 281 -14 b 71 165 144 -14 71 71 b 264 364 71 275 168 335 l 501 435 l 501 451 b 347 619 501 568 456 619 b 188 489 247 619 190 574 l 74 489 b 350 708 88 622 200 708 b 613 458 525 708 613 606 l 613 0 l 508 0 l 503 121 b 281 -14 450 40 389 -14 m 182 174 b 313 68 182 108 228 68 b 501 247 404 68 501 115 l 501 356 l 292 290 b 182 174 222 269 182 236 "},"á":{"ha":714,"x_min":0,"x_max":0,"o":"m 281 -14 b 71 165 144 -14 71 71 b 264 364 71 275 168 335 l 501 435 l 501 451 b 347 619 501 568 456 619 b 188 489 247 619 190 574 l 74 489 b 350 708 88 622 200 708 b 613 458 525 708 613 606 l 613 0 l 508 0 l 503 121 b 281 -14 450 40 389 -14 m 182 174 b 313 68 182 108 228 68 b 501 247 404 68 501 115 l 501 356 l 292 290 b 182 174 222 269 182 236 m 444 1014 l 564 1014 l 411 792 l 303 792 "},"â":{"ha":714,"x_min":0,"x_max":0,"o":"m 281 -14 b 71 165 144 -14 71 71 b 264 364 71 275 168 335 l 501 435 l 501 451 b 347 619 501 568 456 619 b 188 489 247 619 190 574 l 74 489 b 350 708 88 622 200 708 b 613 458 525 708 613 606 l 613 0 l 508 0 l 503 121 b 281 -14 450 40 389 -14 m 288 1014 l 426 1014 l 588 792 l 489 792 l 357 961 l 225 792 l 126 792 m 182 174 b 313 68 182 108 228 68 b 501 247 404 68 501 115 l 501 356 l 292 290 b 182 174 222 269 182 236 "},"ä":{"ha":714,"x_min":0,"x_max":0,"o":"m 281 -14 b 71 165 144 -14 71 71 b 264 364 71 275 168 335 l 501 435 l 501 451 b 347 619 501 568 456 619 b 188 489 247 619 190 574 l 74 489 b 350 708 88 622 200 708 b 613 458 525 708 613 606 l 613 0 l 508 0 l 503 121 b 281 -14 450 40 389 -14 m 176 943 l 301 943 l 301 824 l 176 824 m 182 174 b 313 68 182 108 228 68 b 501 247 404 68 501 115 l 501 356 l 292 290 b 182 174 222 269 182 236 m 413 943 l 538 943 l 538 824 l 413 824 "},"à":{"ha":714,"x_min":0,"x_max":0,"o":"m 281 -14 b 71 165 144 -14 71 71 b 264 364 71 275 168 335 l 501 435 l 501 451 b 347 619 501 568 456 619 b 188 489 247 619 190 574 l 74 489 b 350 708 88 622 200 708 b 613 458 525 708 613 606 l 613 0 l 508 0 l 503 121 b 281 -14 450 40 389 -14 m 269 1014 l 411 792 l 303 792 l 150 1014 m 182 174 b 313 68 182 108 228 68 b 501 247 404 68 501 115 l 501 356 l 292 290 b 182 174 222 269 182 236 "},"å":{"ha":714,"x_min":0,"x_max":0,"o":"m 281 -14 b 71 165 144 -14 71 71 b 264 364 71 275 168 335 l 501 435 l 501 451 b 347 619 501 568 456 619 b 188 489 247 619 190 574 l 74 489 b 350 708 88 622 200 708 b 613 458 525 708 613 606 l 613 0 l 508 0 l 503 121 b 281 -14 450 40 389 -14 m 182 174 b 313 68 182 108 228 68 b 501 247 404 68 501 115 l 501 356 l 292 290 b 182 174 222 269 182 236 m 203 931 b 357 1076 203 1014 269 1076 b 511 931 444 1076 511 1014 b 357 785 511 847 444 785 b 203 931 269 785 203 847 m 281 931 b 357 854 281 881 307 854 b 433 931 407 854 433 881 b 357 1007 433 981 407 1007 b 281 931 307 1007 281 981 "},"ã":{"ha":714,"x_min":0,"x_max":0,"o":"m 281 -14 b 71 165 144 -14 71 71 b 264 364 71 275 168 335 l 501 435 l 501 451 b 347 619 501 568 456 619 b 188 489 247 619 190 574 l 74 489 b 350 708 88 622 200 708 b 613 458 525 708 613 606 l 613 0 l 508 0 l 503 121 b 281 -14 450 40 389 -14 m 119 822 b 254 988 122 924 164 988 b 358 950 303 988 332 969 l 390 926 b 460 896 411 911 433 896 b 526 983 499 896 524 928 l 594 983 b 460 818 592 882 550 818 b 356 856 411 818 382 836 l 324 879 b 254 910 303 894 281 910 b 188 822 215 910 190 878 l 119 822 m 182 174 b 313 68 182 108 228 68 b 501 247 404 68 501 115 l 501 356 l 292 290 b 182 174 222 269 182 236 "},"æ":{"ha":1164,"x_min":0,"x_max":0,"o":"m 804 -14 b 557 136 689 -14 604 38 b 301 -14 513 33 419 -14 b 71 167 144 -14 71 71 b 264 360 71 275 164 343 l 501 399 l 501 465 b 347 619 501 582 456 619 b 188 489 229 619 190 574 l 74 489 b 350 708 88 622 207 708 b 568 579 464 708 535 656 b 804 708 617 664 697 708 b 1096 389 983 708 1096 583 l 1096 314 l 610 314 l 610 306 b 804 75 610 151 679 75 b 967 181 903 75 956 122 l 1081 181 b 804 -14 1056 69 951 -14 m 182 175 b 321 68 182 108 228 68 b 501 219 404 68 501 101 l 501 319 l 292 286 b 182 175 218 275 182 236 m 992 400 b 804 619 992 540 932 619 b 610 400 682 619 613 547 "},"b":{"ha":782,"x_min":0,"x_max":0,"o":"m 438 -14 b 218 129 338 -14 267 42 l 213 0 l 108 0 l 108 1000 l 219 1000 l 219 568 b 438 708 268 654 339 708 b 717 347 588 708 717 583 b 438 -14 717 111 588 -14 m 219 292 b 408 76 219 165 286 76 b 603 319 533 76 603 165 l 603 375 b 408 618 603 529 533 618 b 219 403 286 618 219 529 l 219 292 "},"c":{"ha":707,"x_min":0,"x_max":0,"o":"m 368 -14 b 65 347 189 -14 65 111 b 368 708 65 583 189 708 b 647 472 547 708 638 590 l 536 472 b 368 619 532 543 485 619 b 179 375 243 619 179 529 l 179 319 b 368 75 179 165 243 75 b 536 222 485 75 532 151 l 647 222 b 368 -14 638 104 547 -14 "},"ç":{"ha":707,"x_min":0,"x_max":0,"o":"m 65 347 b 368 708 65 583 189 708 b 647 472 547 708 638 590 l 536 472 b 368 619 532 543 485 619 b 179 375 243 619 179 529 l 179 319 b 368 75 179 165 243 75 b 536 222 485 75 532 151 l 647 222 b 383 -14 638 108 553 -7 l 357 -53 b 514 -171 447 -56 514 -86 b 347 -292 514 -258 443 -292 l 271 -292 l 271 -214 l 344 -214 b 425 -167 383 -214 425 -208 b 344 -121 425 -126 383 -121 l 271 -121 l 271 -53 l 301 -7 b 65 347 158 21 65 142 "},"d":{"ha":782,"x_min":0,"x_max":0,"o":"m 344 -14 b 65 347 194 -14 65 111 b 344 708 65 583 194 708 b 563 568 443 708 514 654 l 563 1000 l 674 1000 l 674 0 l 569 0 l 564 129 b 344 -14 515 42 444 -14 m 179 319 b 374 76 179 165 249 76 b 563 292 496 76 563 165 l 563 403 b 374 618 563 529 496 618 b 179 375 249 618 179 529 l 179 319 "},"ð":{"ha":754,"x_min":0,"x_max":0,"o":"m 381 -14 b 65 333 181 -14 65 135 b 350 667 65 533 186 667 b 571 539 451 667 531 615 b 418 818 549 629 493 728 l 176 719 l 176 803 l 364 879 b 207 1014 315 929 263 975 l 368 1014 b 467 921 403 986 436 954 l 664 1000 l 664 917 l 518 858 b 689 361 624 718 689 543 l 689 333 b 381 -14 689 96 556 -14 m 179 338 b 381 89 179 158 258 89 b 575 338 529 89 575 196 b 375 578 575 508 503 578 b 179 338 242 578 179 501 "},"e":{"ha":714,"x_min":0,"x_max":0,"o":"m 374 -14 b 65 347 192 -14 65 111 b 368 708 65 583 189 708 b 654 389 547 708 654 583 l 654 314 l 179 314 b 374 75 181 163 247 75 b 531 181 467 75 519 124 l 644 181 b 374 -14 619 60 518 -14 m 550 400 b 368 619 550 532 492 619 b 179 400 250 619 186 539 "},"é":{"ha":714,"x_min":0,"x_max":0,"o":"m 374 -14 b 65 347 192 -14 65 111 b 368 708 65 583 189 708 b 654 389 547 708 654 583 l 654 314 l 179 314 b 374 75 181 163 247 75 b 531 181 467 75 519 124 l 644 181 b 374 -14 619 60 518 -14 m 550 400 b 368 619 550 532 492 619 b 179 400 250 619 186 539 m 454 1014 l 574 1014 l 421 792 l 313 792 "},"ê":{"ha":714,"x_min":0,"x_max":0,"o":"m 374 -14 b 65 347 192 -14 65 111 b 368 708 65 583 189 708 b 654 389 547 708 654 583 l 654 314 l 179 314 b 374 75 181 163 247 75 b 531 181 467 75 519 124 l 644 181 b 374 -14 619 60 518 -14 m 297 1014 l 436 1014 l 597 792 l 499 792 l 367 961 l 235 792 l 136 792 m 550 400 b 368 619 550 532 492 619 b 179 400 250 619 186 539 "},"ë":{"ha":714,"x_min":0,"x_max":0,"o":"m 374 -14 b 65 347 192 -14 65 111 b 368 708 65 583 189 708 b 654 389 547 708 654 583 l 654 314 l 179 314 b 374 75 181 163 247 75 b 531 181 467 75 519 124 l 644 181 b 374 -14 619 60 518 -14 m 550 400 b 368 619 550 532 492 619 b 179 400 250 619 186 539 m 186 943 l 311 943 l 311 824 l 186 824 m 422 943 l 547 943 l 547 824 l 422 824 "},"è":{"ha":714,"x_min":0,"x_max":0,"o":"m 374 -14 b 65 347 192 -14 65 111 b 368 708 65 583 189 708 b 654 389 547 708 654 583 l 654 314 l 179 314 b 374 75 181 163 247 75 b 531 181 467 75 519 124 l 644 181 b 374 -14 619 60 518 -14 m 279 1014 l 421 792 l 313 792 l 160 1014 m 550 400 b 368 619 550 532 492 619 b 179 400 250 619 186 539 "},"f":{"ha":457,"x_min":0,"x_max":0,"o":"m 150 800 b 343 1000 150 925 206 1000 l 436 1000 l 436 911 l 357 911 b 261 804 274 911 261 900 l 261 694 l 422 694 l 422 606 l 261 606 l 261 0 l 150 0 l 150 606 l 21 606 l 21 694 l 150 694 l 150 800 "},"g":{"ha":782,"x_min":0,"x_max":0,"o":"m 368 -286 b 71 -67 194 -286 89 -203 l 185 -67 b 372 -197 196 -139 246 -197 b 563 -1 507 -197 563 -132 l 563 150 b 344 11 515 65 449 11 b 65 360 194 11 65 122 b 344 708 65 597 194 708 b 564 567 450 708 517 653 l 569 694 l 674 694 l 674 6 b 368 -286 674 -175 572 -286 m 179 344 b 374 101 179 190 249 101 b 563 317 496 101 563 190 l 563 403 b 374 618 563 529 496 618 b 179 375 249 618 179 529 l 179 344 "},"h":{"ha":754,"x_min":0,"x_max":0,"o":"m 108 1000 l 219 1000 l 219 576 b 438 708 268 653 331 708 b 653 461 560 708 653 631 l 653 0 l 542 0 l 542 451 b 390 617 542 557 501 617 b 219 417 278 617 219 556 l 219 0 l 108 0 "},"i":{"ha":328,"x_min":0,"x_max":0,"o":"m 108 694 l 219 694 l 219 0 l 108 0 m 222 826 l 222 979 l 106 979 l 106 826 "},"í":{"ha":328,"x_min":0,"x_max":0,"o":"m 108 694 l 219 694 l 219 0 l 108 0 m 251 1014 l 371 1014 l 218 792 l 110 792 "},"î":{"ha":328,"x_min":0,"x_max":0,"o":"m 108 694 l 219 694 l 219 0 l 108 0 m 94 1014 l 233 1014 l 394 792 l 296 792 l 164 961 l 32 792 l -67 792 "},"ï":{"ha":328,"x_min":0,"x_max":0,"o":"m 108 694 l 219 694 l 219 0 l 108 0 m -17 943 l 108 943 l 108 824 l -17 824 m 219 943 l 344 943 l 344 824 l 219 824 "},"ì":{"ha":328,"x_min":0,"x_max":0,"o":"m 108 694 l 219 694 l 219 0 l 108 0 m 76 1014 l 218 792 l 110 792 l -43 1014 "},"ĳ":{"ha":656,"x_min":0,"x_max":0,"o":"m 108 694 l 219 694 l 219 0 l 108 0 m 222 826 l 222 979 l 106 979 l 106 826 m 325 -183 l 436 -183 l 436 694 l 547 694 l 547 -278 l 325 -278 m 550 826 l 550 979 l 433 979 l 433 826 "},"j":{"ha":328,"x_min":0,"x_max":0,"o":"m -3 -183 l 108 -183 l 108 694 l 219 694 l 219 -278 l -3 -278 m 222 826 l 222 979 l 106 979 l 106 826 "},"ȷ":{"ha":328,"x_min":0,"x_max":0,"o":"m -3 -183 l 108 -183 l 108 694 l 219 694 l 219 -278 l -3 -278 "},"k":{"ha":676,"x_min":0,"x_max":0,"o":"m 219 347 l 219 0 l 108 0 l 108 1000 l 219 1000 l 219 369 l 500 694 l 636 694 l 336 360 l 643 0 l 497 0 "},"l":{"ha":376,"x_min":0,"x_max":0,"o":"m 108 1000 l 219 1000 l 219 89 l 317 89 l 317 0 l 108 0 "},"m":{"ha":1171,"x_min":0,"x_max":0,"o":"m 108 694 l 213 694 l 218 572 b 433 708 267 651 329 708 b 632 560 525 708 603 661 b 857 708 683 644 747 708 b 1069 461 976 708 1069 631 l 1069 0 l 958 0 l 958 451 b 811 617 958 557 918 617 b 644 417 703 617 644 556 l 644 0 l 533 0 l 533 451 b 386 617 533 557 493 617 b 219 417 278 617 219 556 l 219 0 l 108 0 "},"n":{"ha":754,"x_min":0,"x_max":0,"o":"m 108 694 l 213 694 l 218 572 b 438 708 267 651 329 708 b 653 461 560 708 653 631 l 653 0 l 542 0 l 542 451 b 390 617 542 557 501 617 b 219 417 278 617 219 556 l 219 0 l 108 0 "},"ñ":{"ha":754,"x_min":0,"x_max":0,"o":"m 108 694 l 213 694 l 218 572 b 438 708 267 651 329 708 b 653 461 560 708 653 631 l 653 0 l 542 0 l 542 451 b 390 617 542 557 501 617 b 219 417 278 617 219 556 l 219 0 l 108 0 m 140 822 b 275 988 143 924 185 988 b 379 950 324 988 353 969 l 411 926 b 481 896 432 911 454 896 b 547 983 519 896 544 928 l 615 983 b 481 818 613 882 571 818 b 376 856 432 818 403 836 l 344 879 b 275 910 324 894 301 910 b 208 822 236 910 211 878 l 140 822 "},"o":{"ha":747,"x_min":0,"x_max":0,"o":"m 374 -14 b 65 347 194 -14 65 111 b 374 708 65 583 194 708 b 682 347 553 708 682 583 b 374 -14 682 111 553 -14 m 179 319 b 374 75 179 165 249 75 b 568 319 499 75 568 165 l 568 375 b 374 619 568 529 499 619 b 179 375 249 619 179 529 l 179 319 "},"ó":{"ha":747,"x_min":0,"x_max":0,"o":"m 374 -14 b 65 347 194 -14 65 111 b 374 708 65 583 194 708 b 682 347 553 708 682 583 b 374 -14 682 111 553 -14 m 179 319 b 374 75 179 165 249 75 b 568 319 499 75 568 165 l 568 375 b 374 619 568 529 499 619 b 179 375 249 619 179 529 l 179 319 m 461 1014 l 581 1014 l 428 792 l 319 792 "},"ô":{"ha":747,"x_min":0,"x_max":0,"o":"m 374 -14 b 65 347 194 -14 65 111 b 374 708 65 583 194 708 b 682 347 553 708 682 583 b 374 -14 682 111 553 -14 m 304 1014 l 443 1014 l 604 792 l 506 792 l 374 961 l 242 792 l 143 792 m 179 319 b 374 75 179 165 249 75 b 568 319 499 75 568 165 l 568 375 b 374 619 568 529 499 619 b 179 375 249 619 179 529 l 179 319 "},"ö":{"ha":747,"x_min":0,"x_max":0,"o":"m 374 -14 b 65 347 194 -14 65 111 b 374 708 65 583 194 708 b 682 347 553 708 682 583 b 374 -14 682 111 553 -14 m 179 319 b 374 75 179 165 249 75 b 568 319 499 75 568 165 l 568 375 b 374 619 568 529 499 619 b 179 375 249 619 179 529 l 179 319 m 193 943 l 318 943 l 318 824 l 193 824 m 429 943 l 554 943 l 554 824 l 429 824 "},"ò":{"ha":747,"x_min":0,"x_max":0,"o":"m 374 -14 b 65 347 194 -14 65 111 b 374 708 65 583 194 708 b 682 347 553 708 682 583 b 374 -14 682 111 553 -14 m 286 1014 l 428 792 l 319 792 l 167 1014 m 179 319 b 374 75 179 165 249 75 b 568 319 499 75 568 165 l 568 375 b 374 619 568 529 499 619 b 179 375 249 619 179 529 l 179 319 "},"ø":{"ha":747,"x_min":0,"x_max":0,"o":"m 374 -14 b 190 43 303 -14 240 6 l 114 -56 l 8 -56 l 132 104 b 65 347 90 163 65 244 b 374 708 65 583 194 708 b 557 651 444 708 507 689 l 633 750 l 739 750 l 615 590 b 682 347 657 532 682 450 b 374 -14 682 111 553 -14 m 179 319 b 200 192 179 269 186 228 l 499 576 b 374 619 467 604 425 619 b 179 375 249 619 179 529 l 179 319 m 249 118 b 374 75 281 90 322 75 b 568 319 499 75 568 165 l 568 375 b 547 503 568 425 561 467 l 249 118 "},"õ":{"ha":747,"x_min":0,"x_max":0,"o":"m 374 -14 b 65 347 194 -14 65 111 b 374 708 65 583 194 708 b 682 347 553 708 682 583 b 374 -14 682 111 553 -14 m 136 822 b 271 988 139 924 181 988 b 375 950 319 988 349 969 l 407 926 b 476 896 428 911 450 896 b 543 983 515 896 540 928 l 611 983 b 476 818 608 882 567 818 b 372 856 428 818 399 836 l 340 879 b 271 910 319 894 297 910 b 204 822 232 910 207 878 l 136 822 m 179 319 b 374 75 179 165 249 75 b 568 319 499 75 568 165 l 568 375 b 374 619 568 529 499 619 b 179 375 249 619 179 529 l 179 319 "},"œ":{"ha":1228,"x_min":0,"x_max":0,"o":"m 374 -14 b 65 347 194 -14 65 111 b 374 708 65 583 194 708 b 621 547 493 708 578 653 b 868 708 664 653 749 708 b 1160 389 1047 708 1160 583 l 1160 314 l 674 314 l 674 306 b 868 75 674 151 743 75 b 1031 181 967 75 1019 122 l 1144 181 b 868 -14 1119 69 1015 -14 b 621 147 749 -14 664 42 b 374 -14 578 42 493 -14 m 179 306 b 374 75 179 151 249 75 b 568 306 499 75 568 151 l 568 389 b 374 619 568 543 499 619 b 179 389 249 619 179 543 l 179 306 m 1056 400 b 868 619 1056 540 996 619 b 674 400 746 619 676 547 "},"p":{"ha":782,"x_min":0,"x_max":0,"o":"m 108 694 l 213 694 l 218 565 b 438 708 267 653 338 708 b 717 347 588 708 717 583 b 438 -14 717 111 588 -14 b 219 126 339 -14 268 40 l 219 -278 l 108 -278 m 219 292 b 408 76 219 165 286 76 b 603 319 533 76 603 165 l 603 375 b 408 618 603 529 533 618 b 219 403 286 618 219 529 l 219 292 "},"þ":{"ha":782,"x_min":0,"x_max":0,"o":"m 108 1000 l 219 1000 l 219 568 b 438 708 268 654 339 708 b 717 347 588 708 717 583 b 438 -14 717 111 588 -14 b 219 126 339 -14 268 40 l 219 -278 l 108 -278 m 219 278 b 408 76 219 151 286 76 b 603 306 533 76 603 151 l 603 389 b 408 618 603 543 533 618 b 219 417 286 618 219 543 l 219 278 "},"q":{"ha":782,"x_min":0,"x_max":0,"o":"m 563 -278 l 563 126 b 344 -14 514 40 443 -14 b 65 347 194 -14 65 111 b 344 708 65 583 194 708 b 564 565 444 708 515 653 l 569 694 l 674 694 l 674 -278 m 179 319 b 374 76 179 165 249 76 b 563 292 496 76 563 165 l 563 403 b 374 618 563 529 496 618 b 179 375 249 618 179 529 l 179 319 "},"r":{"ha":521,"x_min":0,"x_max":0,"o":"m 108 694 l 213 694 l 218 556 b 440 701 288 665 339 701 l 478 701 l 478 601 l 399 601 b 219 408 274 601 219 535 l 219 0 l 108 0 "},"s":{"ha":678,"x_min":0,"x_max":0,"o":"m 254 318 b 78 504 160 344 78 399 b 333 708 78 625 176 708 b 603 486 513 708 596 599 l 492 486 b 333 619 490 550 451 619 b 189 514 235 619 189 579 b 279 417 189 456 228 431 l 424 376 b 603 190 518 350 603 296 b 343 -14 603 69 500 -14 b 69 208 164 -14 78 96 l 181 208 b 343 75 183 144 225 75 b 492 181 442 75 492 115 b 399 278 492 239 451 263 l 254 318 "},"š":{"ha":678,"x_min":0,"x_max":0,"o":"m 254 318 b 78 504 160 344 78 399 b 333 708 78 625 176 708 b 603 486 513 708 596 599 l 492 486 b 333 619 490 550 451 619 b 189 514 235 619 189 579 b 279 417 189 456 228 431 l 424 376 b 603 190 518 350 603 296 b 343 -14 603 69 500 -14 b 69 208 164 -14 78 96 l 181 208 b 343 75 183 144 225 75 b 492 181 442 75 492 115 b 399 278 492 239 451 263 l 254 318 m 207 1014 l 339 844 l 471 1014 l 569 1014 l 408 792 l 269 792 l 108 1014 "},"ß":{"ha":813,"x_min":0,"x_max":0,"o":"m 108 660 b 400 1007 108 867 199 1007 b 688 744 574 1007 688 904 b 525 522 688 628 626 553 b 729 274 651 494 729 417 b 407 0 729 93 600 0 l 324 0 l 324 100 l 407 100 b 615 285 543 100 615 153 b 407 474 615 417 543 474 l 338 474 l 338 568 l 407 568 b 574 736 514 568 574 615 b 397 907 574 854 517 907 b 219 660 247 907 219 825 l 219 0 l 108 0 l 108 660 "},"t":{"ha":499,"x_min":0,"x_max":0,"o":"m 343 0 b 150 200 206 0 150 75 l 150 606 l 21 606 l 21 694 l 150 694 l 150 861 l 261 875 l 261 694 l 436 694 l 436 606 l 261 606 l 261 196 b 357 89 261 100 274 89 l 436 89 l 436 0 l 343 0 "},"u":{"ha":749,"x_min":0,"x_max":0,"o":"m 321 -14 b 101 233 193 -14 101 78 l 101 694 l 213 694 l 213 243 b 361 78 213 138 253 78 b 529 278 472 78 529 139 l 529 694 l 640 694 l 640 0 l 536 0 l 531 121 b 321 -14 482 43 422 -14 "},"ú":{"ha":749,"x_min":0,"x_max":0,"o":"m 321 -14 b 101 233 193 -14 101 78 l 101 694 l 213 694 l 213 243 b 361 78 213 138 253 78 b 529 278 472 78 529 139 l 529 694 l 640 694 l 640 0 l 536 0 l 531 121 b 321 -14 482 43 422 -14 m 463 1014 l 582 1014 l 429 792 l 321 792 "},"û":{"ha":749,"x_min":0,"x_max":0,"o":"m 321 -14 b 101 233 193 -14 101 78 l 101 694 l 213 694 l 213 243 b 361 78 213 138 253 78 b 529 278 472 78 529 139 l 529 694 l 640 694 l 640 0 l 536 0 l 531 121 b 321 -14 482 43 422 -14 m 306 1014 l 444 1014 l 606 792 l 507 792 l 375 961 l 243 792 l 144 792 "},"ü":{"ha":749,"x_min":0,"x_max":0,"o":"m 321 -14 b 101 233 193 -14 101 78 l 101 694 l 213 694 l 213 243 b 361 78 213 138 253 78 b 529 278 472 78 529 139 l 529 694 l 640 694 l 640 0 l 536 0 l 531 121 b 321 -14 482 43 422 -14 m 194 943 l 319 943 l 319 824 l 194 824 m 431 943 l 556 943 l 556 824 l 431 824 "},"ù":{"ha":749,"x_min":0,"x_max":0,"o":"m 321 -14 b 101 233 193 -14 101 78 l 101 694 l 213 694 l 213 243 b 361 78 213 138 253 78 b 529 278 472 78 529 139 l 529 694 l 640 694 l 640 0 l 536 0 l 531 121 b 321 -14 482 43 422 -14 m 288 1014 l 429 792 l 321 792 l 168 1014 "},"v":{"ha":703,"x_min":0,"x_max":0,"o":"m 35 694 l 151 694 l 300 243 l 350 79 l 356 79 l 406 243 l 554 694 l 668 694 l 424 0 l 279 0 "},"w":{"ha":1089,"x_min":0,"x_max":0,"o":"m 738 253 l 778 86 l 783 86 l 824 253 l 943 694 l 1054 694 l 851 0 l 697 0 l 585 436 l 546 603 l 540 603 l 503 436 l 392 0 l 238 0 l 35 694 l 150 694 l 271 251 l 311 85 l 317 85 l 357 251 l 474 694 l 621 694 "},"ẃ":{"ha":1089,"x_min":0,"x_max":0,"o":"m 738 253 l 778 86 l 783 86 l 824 253 l 943 694 l 1054 694 l 851 0 l 697 0 l 585 436 l 546 603 l 540 603 l 503 436 l 392 0 l 238 0 l 35 694 l 150 694 l 271 251 l 311 85 l 317 85 l 357 251 l 474 694 l 621 694 m 632 1014 l 751 1014 l 599 792 l 490 792 "},"ŵ":{"ha":1089,"x_min":0,"x_max":0,"o":"m 738 253 l 778 86 l 783 86 l 824 253 l 943 694 l 1054 694 l 851 0 l 697 0 l 585 436 l 546 603 l 540 603 l 503 436 l 392 0 l 238 0 l 35 694 l 150 694 l 271 251 l 311 85 l 317 85 l 357 251 l 474 694 l 621 694 m 475 1014 l 614 1014 l 775 792 l 676 792 l 544 961 l 413 792 l 314 792 "},"ẅ":{"ha":1089,"x_min":0,"x_max":0,"o":"m 738 253 l 778 86 l 783 86 l 824 253 l 943 694 l 1054 694 l 851 0 l 697 0 l 585 436 l 546 603 l 540 603 l 503 436 l 392 0 l 238 0 l 35 694 l 150 694 l 271 251 l 311 85 l 317 85 l 357 251 l 474 694 l 621 694 m 364 943 l 489 943 l 489 824 l 364 824 m 600 943 l 725 943 l 725 824 l 600 824 "},"ẁ":{"ha":1089,"x_min":0,"x_max":0,"o":"m 738 253 l 778 86 l 783 86 l 824 253 l 943 694 l 1054 694 l 851 0 l 697 0 l 585 436 l 546 603 l 540 603 l 503 436 l 392 0 l 238 0 l 35 694 l 150 694 l 271 251 l 311 85 l 317 85 l 357 251 l 474 694 l 621 694 m 457 1014 l 599 792 l 490 792 l 338 1014 "},"x":{"ha":689,"x_min":0,"x_max":0,"o":"m 271 347 l 40 694 l 168 694 l 257 551 l 343 404 l 349 404 l 435 551 l 525 694 l 649 694 l 418 347 l 649 0 l 521 0 l 432 143 l 346 290 l 340 290 l 254 143 l 164 0 l 40 0 "},"y":{"ha":697,"x_min":0,"x_max":0,"o":"m 338 42 l 260 42 l 35 694 l 151 694 l 299 236 l 347 72 l 353 72 l 401 236 l 553 694 l 663 694 l 336 -278 l 232 -278 "},"ý":{"ha":697,"x_min":0,"x_max":0,"o":"m 338 42 l 260 42 l 35 694 l 151 694 l 299 236 l 347 72 l 353 72 l 401 236 l 553 694 l 663 694 l 336 -278 l 232 -278 m 436 1014 l 556 1014 l 403 792 l 294 792 "},"ŷ":{"ha":697,"x_min":0,"x_max":0,"o":"m 338 42 l 260 42 l 35 694 l 151 694 l 299 236 l 347 72 l 353 72 l 401 236 l 553 694 l 663 694 l 336 -278 l 232 -278 m 279 1014 l 418 1014 l 579 792 l 481 792 l 349 961 l 217 792 l 118 792 "},"ÿ":{"ha":697,"x_min":0,"x_max":0,"o":"m 338 42 l 260 42 l 35 694 l 151 694 l 299 236 l 347 72 l 353 72 l 401 236 l 553 694 l 663 694 l 336 -278 l 232 -278 m 168 943 l 293 943 l 293 824 l 168 824 m 404 943 l 529 943 l 529 824 l 404 824 "},"ỳ":{"ha":697,"x_min":0,"x_max":0,"o":"m 338 42 l 260 42 l 35 694 l 151 694 l 299 236 l 347 72 l 353 72 l 401 236 l 553 694 l 663 694 l 336 -278 l 232 -278 m 261 1014 l 403 792 l 294 792 l 142 1014 "},"z":{"ha":678,"x_min":0,"x_max":0,"o":"m 481 599 l 90 599 l 90 694 l 588 694 l 588 583 l 197 96 l 594 96 l 594 0 l 90 0 l 90 111 "},"ž":{"ha":678,"x_min":0,"x_max":0,"o":"m 481 599 l 90 599 l 90 694 l 588 694 l 588 583 l 197 96 l 594 96 l 594 0 l 90 0 l 90 111 m 207 1014 l 339 844 l 471 1014 l 569 1014 l 408 792 l 269 792 l 108 1014 "},"ª":{"ha":714,"x_min":0,"x_max":0,"o":"m 281 -14 b 71 165 144 -14 71 71 b 264 364 71 275 168 335 l 501 435 l 501 451 b 347 619 501 568 456 619 b 188 489 247 619 190 574 l 74 489 b 350 708 88 622 200 708 b 613 458 525 708 613 606 l 613 0 l 508 0 l 503 121 b 281 -14 450 40 389 -14 m 182 174 b 313 68 182 108 228 68 b 501 247 404 68 501 115 l 501 356 l 292 290 b 182 174 222 269 182 236 "},"º":{"ha":747,"x_min":0,"x_max":0,"o":"m 374 -14 b 65 347 194 -14 65 111 b 374 708 65 583 194 708 b 682 347 553 708 682 583 b 374 -14 682 111 553 -14 m 179 319 b 374 75 179 165 249 75 b 568 319 499 75 568 165 l 568 375 b 374 619 568 529 499 619 b 179 375 249 619 179 529 l 179 319 "},"Ω":{"ha":967,"x_min":0,"x_max":0,"o":"m 71 100 l 297 100 b 78 493 165 161 78 300 b 483 958 78 769 247 958 b 889 493 719 958 889 769 b 669 100 889 300 801 161 l 896 100 l 896 0 l 539 0 l 539 97 b 775 451 683 143 775 256 l 775 535 b 483 856 775 735 663 856 b 192 535 304 856 192 735 l 192 451 b 428 97 192 256 283 143 l 428 0 l 71 0 "},"μ":{"ha":756,"x_min":0,"x_max":0,"o":"m 108 694 l 219 694 l 219 229 b 368 92 219 138 260 92 b 536 264 479 92 536 139 l 536 694 l 647 694 l 647 0 l 543 0 l 538 129 b 342 0 492 61 436 0 b 219 49 292 0 250 17 l 219 -275 l 108 -275 "},"π":{"ha":1014,"x_min":0,"x_max":0,"o":"m 839 0 b 660 186 704 0 660 63 l 660 606 l 340 606 l 340 0 l 229 0 l 229 606 l 63 606 l 63 694 l 951 694 l 951 606 l 771 606 l 771 182 b 853 89 771 99 782 89 l 904 89 l 904 0 l 839 0 "},"½":{"ha":833,"x_min":0,"x_max":0,"o":""},"¼":{"ha":833,"x_min":0,"x_max":0,"o":""},"¾":{"ha":833,"x_min":0,"x_max":0,"o":""},"¹":{"ha":833,"x_min":0,"x_max":0,"o":"m 125 100 l 396 100 l 396 831 l 125 703 l 125 822 l 424 944 l 507 944 l 507 100 l 736 100 l 736 0 l 125 0 "},"²":{"ha":833,"x_min":0,"x_max":0,"o":"m 99 639 b 419 958 110 831 233 958 b 729 664 599 958 729 838 b 507 313 729 528 650 436 l 260 100 l 726 100 l 726 0 l 115 0 l 115 100 l 422 371 b 617 664 561 494 617 561 b 414 858 617 789 535 858 b 213 639 293 858 221 793 l 99 639 "},"³":{"ha":833,"x_min":0,"x_max":0,"o":"m 121 944 l 707 944 l 707 867 l 433 578 b 739 299 622 572 739 467 b 410 -14 739 117 603 -14 b 94 306 222 -14 106 114 l 208 306 b 413 86 217 151 290 86 b 625 292 540 86 625 156 b 417 494 625 422 544 494 l 290 494 l 290 556 l 553 844 l 121 844 "}," ":{"ha":1389,"x_min":0,"x_max":0,"o":""}," ":{"ha":694,"x_min":0,"x_max":0,"o":""}," ":{"ha":833,"x_min":0,"x_max":0,"o":""}," ":{"ha":199,"x_min":0,"x_max":0,"o":""}," ":{"ha":306,"x_min":0,"x_max":0,"o":""}," ":{"ha":278,"x_min":0,"x_max":0,"o":""},".":{"ha":342,"x_min":0,"x_max":0,"o":"m 97 139 l 244 139 l 244 0 l 97 0 "},",":{"ha":342,"x_min":0,"x_max":0,"o":"m 97 139 l 244 139 l 244 0 l 168 -187 l 72 -187 l 168 0 l 97 0 "},":":{"ha":342,"x_min":0,"x_max":0,"o":"m 97 694 l 244 694 l 244 556 l 97 556 m 97 139 l 244 139 l 244 0 l 97 0 "},";":{"ha":342,"x_min":0,"x_max":0,"o":"m 97 139 l 244 139 l 244 0 l 168 -187 l 72 -187 l 168 0 l 97 0 m 97 694 l 244 694 l 244 556 l 97 556 "},"…":{"ha":1108,"x_min":0,"x_max":0,"o":"m 850 139 l 997 139 l 997 0 l 850 0 m 111 139 l 258 139 l 258 0 l 111 0 m 481 139 l 628 139 l 628 0 l 481 0 "},"!":{"ha":342,"x_min":0,"x_max":0,"o":"m 97 139 l 244 139 l 244 0 l 97 0 m 114 944 l 228 944 l 228 278 l 114 278 "},"¡":{"ha":342,"x_min":0,"x_max":0,"o":"m 244 556 l 97 556 l 97 694 l 244 694 m 114 417 l 228 417 l 228 -250 l 114 -250 "},"?":{"ha":731,"x_min":0,"x_max":0,"o":"m 275 139 l 422 139 l 422 0 l 275 0 m 58 660 b 364 958 68 839 189 958 b 639 699 525 958 639 851 b 433 390 639 578 568 504 l 272 254 l 272 381 l 374 465 b 529 696 485 558 529 614 b 358 860 529 803 453 860 b 168 660 253 860 175 797 l 58 660 "},"¿":{"ha":647,"x_min":0,"x_max":0,"o":"m 422 556 l 275 556 l 275 694 l 422 694 m 58 -4 b 264 304 58 117 129 190 l 425 440 l 425 314 l 324 229 b 168 -1 213 136 168 81 b 339 -165 168 -108 244 -165 b 529 35 444 -165 522 -103 l 639 35 b 333 -264 629 -144 508 -264 b 58 -4 172 -264 58 -157 "},"·":{"ha":286,"x_min":0,"x_max":0,"o":"m 69 556 l 217 556 l 217 417 l 69 417 "},"•":{"ha":508,"x_min":0,"x_max":0,"o":"m 139 583 l 369 583 l 369 361 l 139 361 "},"*":{"ha":667,"x_min":0,"x_max":0,"o":"m 381 1000 l 376 889 l 361 771 l 457 843 l 551 903 l 599 821 l 500 768 l 390 722 l 499 676 l 597 624 l 550 542 l 456 601 l 361 672 l 376 556 l 381 444 l 286 444 l 290 556 l 306 672 l 211 601 l 117 543 l 69 625 l 168 676 l 276 722 l 167 768 l 68 819 l 115 901 l 210 843 l 306 771 l 290 889 l 286 1000 "},"#":{"ha":915,"x_min":0,"x_max":0,"o":"m 204 264 l 28 264 l 28 353 l 217 353 l 265 594 l 83 594 l 83 683 l 278 683 l 331 944 l 431 944 l 378 683 l 611 683 l 664 944 l 764 944 l 711 683 l 888 683 l 888 594 l 699 594 l 650 353 l 839 353 l 839 264 l 638 264 l 585 0 l 485 0 l 538 264 l 304 264 l 251 0 l 151 0 m 550 353 l 599 594 l 365 594 l 317 353 "},"/":{"ha":708,"x_min":0,"x_max":0,"o":"m 543 1000 l 653 1000 l 165 -69 l 56 -69 "},"\\":{"ha":708,"x_min":0,"x_max":0,"o":"m 543 -69 l 56 1000 l 165 1000 l 653 -69 "},"-":{"ha":667,"x_min":0,"x_max":0,"o":"m 111 483 l 556 483 l 556 378 l 111 378 "},"­":{"ha":667,"x_min":0,"x_max":0,"o":"m 111 483 l 556 483 l 556 378 l 111 378 "},"–":{"ha":861,"x_min":0,"x_max":0,"o":"m 83 483 l 778 483 l 778 378 l 83 378 "},"—":{"ha":1417,"x_min":0,"x_max":0,"o":"m 83 483 l 1333 483 l 1333 378 l 83 378 "},"_":{"ha":722,"x_min":0,"x_max":0,"o":"m 0 -131 l 722 -131 l 722 -231 l 0 -231 "},"(":{"ha":500,"x_min":0,"x_max":0,"o":"m 328 -236 b 111 389 169 -58 111 181 b 328 1014 111 597 169 836 l 431 1014 b 225 389 288 836 225 597 b 431 -236 225 181 288 -58 l 328 -236 "},")":{"ha":500,"x_min":0,"x_max":0,"o":"m 69 -236 b 275 389 213 -58 275 181 b 69 1014 275 597 213 836 l 172 1014 b 389 389 331 836 389 597 b 172 -236 389 181 331 -58 l 69 -236 "},"{":{"ha":500,"x_min":0,"x_max":0,"o":"m 42 440 l 69 440 b 165 546 144 440 165 456 l 165 768 b 394 1014 165 931 233 1014 l 451 1014 l 451 922 l 400 922 b 271 776 294 922 271 904 l 271 575 b 171 389 271 479 239 414 b 271 203 239 364 271 299 l 271 1 b 400 -144 271 -126 294 -144 l 451 -144 l 451 -236 l 394 -236 b 165 10 233 -236 165 -153 l 165 232 b 69 338 165 322 144 338 l 42 338 "},"}":{"ha":500,"x_min":0,"x_max":0,"o":"m 49 -144 l 100 -144 b 229 1 206 -144 229 -126 l 229 203 b 329 389 229 299 261 364 b 229 575 261 414 229 479 l 229 776 b 100 922 229 904 206 922 l 49 922 l 49 1014 l 106 1014 b 335 768 267 1014 335 931 l 335 546 b 431 440 335 456 356 440 l 458 440 l 458 338 l 431 338 b 335 232 356 338 335 322 l 335 10 b 106 -236 335 -153 267 -236 l 49 -236 "},"[":{"ha":472,"x_min":0,"x_max":0,"o":"m 118 1014 l 424 1014 l 424 922 l 224 922 l 224 -144 l 424 -144 l 424 -236 l 118 -236 "},"]":{"ha":472,"x_min":0,"x_max":0,"o":"m 49 -236 l 49 -144 l 249 -144 l 249 922 l 49 922 l 49 1014 l 354 1014 l 354 -236 "},"‚":{"ha":328,"x_min":0,"x_max":0,"o":"m 97 139 l 244 139 l 244 0 l 168 -187 l 72 -187 l 168 0 l 97 0 "},"„":{"ha":564,"x_min":0,"x_max":0,"o":"m 333 139 l 481 139 l 481 0 l 404 -187 l 308 -187 l 404 0 l 333 0 m 168 0 l 97 0 l 97 139 l 244 139 l 244 0 l 168 -187 l 72 -187 "},"“":{"ha":564,"x_min":0,"x_max":0,"o":"m 231 660 l 83 660 l 83 799 l 160 986 l 256 986 l 160 799 l 231 799 m 319 799 l 396 986 l 492 986 l 396 799 l 467 799 l 467 660 l 319 660 "},"”":{"ha":564,"x_min":0,"x_max":0,"o":"m 333 986 l 481 986 l 481 847 l 404 660 l 308 660 l 404 847 l 333 847 m 168 847 l 97 847 l 97 986 l 244 986 l 244 847 l 168 660 l 72 660 "},"‘":{"ha":328,"x_min":0,"x_max":0,"o":"m 219 660 l 72 660 l 72 799 l 149 986 l 244 986 l 149 799 l 219 799 "},"’":{"ha":328,"x_min":0,"x_max":0,"o":"m 97 986 l 244 986 l 244 847 l 168 660 l 72 660 l 168 847 l 97 847 "},"«":{"ha":721,"x_min":0,"x_max":0,"o":"m 250 653 l 360 653 l 178 361 l 360 69 l 250 69 l 83 361 m 528 653 l 638 653 l 456 361 l 638 69 l 528 69 l 361 361 "},"»":{"ha":721,"x_min":0,"x_max":0,"o":"m 471 69 l 361 69 l 543 361 l 361 653 l 471 653 l 638 361 m 265 361 l 83 653 l 193 653 l 360 361 l 193 69 l 83 69 "},"‹":{"ha":443,"x_min":0,"x_max":0,"o":"m 250 653 l 360 653 l 178 361 l 360 69 l 250 69 l 83 361 "},"›":{"ha":443,"x_min":0,"x_max":0,"o":"m 193 69 l 83 69 l 265 361 l 83 653 l 193 653 l 360 361 "},"\"":{"ha":536,"x_min":0,"x_max":0,"o":"m 97 986 l 217 986 l 203 660 l 111 660 m 439 986 l 425 660 l 333 660 l 319 986 "},"'":{"ha":314,"x_min":0,"x_max":0,"o":"m 97 986 l 217 986 l 203 660 l 111 660 "},"ƒ":{"ha":833,"x_min":0,"x_max":0,"o":""},"⚪":{"ha":847,"x_min":0,"x_max":0,"o":"m 424 -14 b 63 347 221 -14 63 144 b 424 708 63 550 221 708 b 785 347 626 708 785 550 b 424 -14 785 144 626 -14 m 165 347 b 424 81 165 190 274 81 b 682 347 574 81 682 190 b 424 614 682 504 574 614 b 165 347 274 614 165 504 "},"⚫":{"ha":847,"x_min":0,"x_max":0,"o":"m 424 -14 b 63 347 221 -14 63 144 b 424 708 63 550 221 708 b 785 347 626 708 785 550 b 424 -14 785 144 626 -14 "},"":{"ha":1213,"x_min":0,"x_max":0,"o":"m 758 222 l 631 0 l 375 0 l 631 443 m 325 472 l 197 694 l 325 915 l 581 472 l 453 250 l 197 250 l 69 472 m 631 944 l 888 944 l 758 722 l 1015 722 l 1143 501 l 631 501 l 503 722 m 888 443 l 1015 222 l 888 0 l 758 222 "},"@":{"ha":1318,"x_min":0,"x_max":0,"o":"m 654 -246 b 89 297 315 -246 89 -22 b 686 917 89 643 340 917 b 1229 407 982 917 1229 708 b 889 14 1229 190 1093 14 l 785 14 l 810 160 b 588 14 753 68 692 14 b 358 275 461 14 358 94 b 658 653 358 435 440 653 b 868 489 768 653 838 597 l 894 639 l 996 639 l 900 99 l 906 99 b 1135 407 1049 99 1135 246 b 686 831 1135 660 931 831 b 183 301 399 831 183 594 b 658 -160 183 31 372 -160 b 968 -93 757 -160 869 -137 l 968 -186 b 654 -246 869 -228 753 -246 m 460 279 b 618 99 460 160 517 99 b 839 374 786 99 839 269 b 678 568 839 510 769 568 b 460 279 528 568 460 415 "},"&":{"ha":911,"x_min":0,"x_max":0,"o":"m 58 222 b 231 474 58 343 146 428 l 299 510 b 176 738 233 585 176 642 b 410 958 176 869 278 958 b 632 758 528 958 632 886 b 474 529 632 656 561 586 l 438 506 l 604 314 l 724 569 l 847 569 l 651 260 l 875 0 l 732 0 l 594 163 b 319 -14 531 49 443 -14 b 58 222 163 -14 58 90 m 169 226 b 329 78 169 140 238 78 b 546 219 418 78 479 135 l 344 457 l 306 431 b 169 226 222 374 169 306 m 288 744 b 392 560 288 675 333 626 l 422 585 b 521 750 476 629 521 679 b 407 869 521 822 478 869 b 288 744 325 869 288 807 "},"¶":{"ha":683,"x_min":0,"x_max":0,"o":"m 486 864 l 347 864 l 347 0 l 261 0 l 261 540 b 46 742 131 547 46 624 b 285 944 46 867 142 944 l 572 944 l 572 0 l 486 0 "},"§":{"ha":807,"x_min":0,"x_max":0,"o":"m 350 551 b 310 569 336 557 322 564 b 190 451 238 561 190 525 b 313 315 190 363 253 340 l 457 254 b 497 236 471 249 485 242 b 617 354 569 244 617 281 b 494 490 617 443 554 465 l 350 551 m 104 432 b 249 606 104 531 172 588 b 167 756 197 642 167 689 b 401 958 167 868 260 958 b 654 708 571 958 654 828 l 560 708 b 401 875 560 818 513 875 b 261 761 308 875 261 835 b 372 639 261 689 308 665 l 525 575 b 703 374 629 532 703 478 b 558 200 703 275 635 218 b 640 50 610 164 640 117 b 406 -153 640 -62 547 -153 b 153 97 236 -153 153 -22 l 247 97 b 406 -69 247 -12 294 -69 b 546 44 499 -69 546 -29 b 435 167 546 117 499 140 l 282 231 b 104 432 178 274 104 328 "},"©":{"ha":1167,"x_min":0,"x_max":0,"o":"m 583 -14 b 97 472 311 -14 97 200 b 583 958 97 744 311 958 b 1069 472 856 958 1069 744 b 583 -14 1069 200 856 -14 m 192 472 b 583 72 192 238 354 72 b 975 472 813 72 975 238 b 583 872 975 707 813 872 b 192 472 354 872 192 707 m 335 472 b 586 750 335 653 440 750 b 821 561 733 750 813 650 l 724 561 b 586 669 719 614 685 669 b 435 493 489 669 435 611 l 435 451 b 586 275 435 333 489 275 b 724 383 685 275 719 331 l 821 383 b 586 194 813 294 733 194 b 335 472 440 194 335 292 "},"®":{"ha":833,"x_min":0,"x_max":0,"o":"m 396 292 b 35 653 193 292 35 450 b 396 1014 35 856 193 1014 b 757 653 599 1014 757 856 b 396 292 757 450 599 292 m 110 653 b 396 361 110 481 229 361 b 682 653 563 361 682 481 b 396 944 682 825 563 944 b 110 653 229 944 110 825 m 263 856 l 408 856 b 551 733 493 856 551 807 b 449 621 551 672 511 632 l 568 461 l 475 461 l 379 617 l 335 617 l 335 461 l 263 461 m 408 672 b 479 733 454 672 479 694 b 408 794 479 772 454 794 l 335 794 l 335 672 "},"™":{"ha":1172,"x_min":0,"x_max":0,"o":"m 201 867 l 33 867 l 33 944 l 458 944 l 458 867 l 290 867 l 290 444 l 201 444 m 538 944 l 679 944 l 813 492 l 946 944 l 1089 944 l 1089 444 l 1000 444 l 1000 711 l 1004 882 l 997 883 l 953 718 l 874 444 l 743 444 l 665 714 l 621 879 l 614 878 l 618 707 l 618 444 l 538 444 "},"°":{"ha":586,"x_min":0,"x_max":0,"o":"m 293 500 b 69 729 167 500 69 597 b 293 958 69 861 167 958 b 517 729 419 958 517 861 b 293 500 517 597 419 500 m 167 729 b 293 592 167 639 211 592 b 419 729 375 592 419 639 b 293 867 419 819 375 867 b 167 729 211 867 167 819 "},"′":{"ha":369,"x_min":0,"x_max":0,"o":"m 167 986 l 286 986 l 161 660 l 69 660 "},"″":{"ha":585,"x_min":0,"x_max":0,"o":"m 167 986 l 286 986 l 161 660 l 69 660 m 382 986 l 501 986 l 376 660 l 285 660 "},"|":{"ha":344,"x_min":0,"x_max":0,"o":"m 219 1000 l 219 -208 l 125 -208 l 125 1000 "},"¦":{"ha":344,"x_min":0,"x_max":0,"o":"m 219 1000 l 219 500 l 125 500 l 125 1000 m 125 292 l 219 292 l 219 -208 l 125 -208 "},"†":{"ha":822,"x_min":0,"x_max":0,"o":"m 361 608 l 97 608 l 97 694 l 361 694 l 361 944 l 461 944 l 461 694 l 725 694 l 725 608 l 461 608 l 461 -139 l 361 -139 "},"‡":{"ha":822,"x_min":0,"x_max":0,"o":"m 461 944 l 461 694 l 725 694 l 725 608 l 461 608 l 461 197 l 725 197 l 725 111 l 461 111 l 461 -139 l 361 -139 l 361 111 l 97 111 l 97 197 l 361 197 l 361 608 l 97 608 l 97 694 l 361 694 l 361 944 "},"⬥":{"ha":833,"x_min":0,"x_max":0,"o":"m 785 347 l 417 -21 l 49 347 l 417 715 "},"⬦":{"ha":833,"x_min":0,"x_max":0,"o":"m 49 347 l 417 715 l 785 347 l 417 -21 m 417 129 l 635 347 l 417 565 l 199 347 "},"¢":{"ha":729,"x_min":0,"x_max":0,"o":"m 324 -11 b 65 347 171 11 65 133 b 324 706 65 561 171 683 l 324 792 l 424 792 l 424 706 b 658 472 571 685 650 572 l 547 472 b 421 618 543 538 504 608 l 421 76 b 547 222 504 86 543 157 l 658 222 b 424 -11 650 122 571 10 l 424 -97 l 324 -97 m 179 306 b 326 76 179 163 239 86 l 326 618 b 179 389 239 608 179 532 l 179 306 "},"¤":{"ha":914,"x_min":0,"x_max":0,"o":"m 457 194 b 288 250 393 194 335 215 l 163 106 l 90 178 l 235 303 b 179 472 200 350 179 408 b 235 642 179 536 200 594 l 90 767 l 163 839 l 288 694 b 457 750 335 729 393 750 b 626 694 521 750 579 729 l 751 839 l 824 767 l 679 642 b 735 472 714 594 735 536 b 679 303 735 408 714 350 l 824 178 l 751 106 l 626 250 b 457 194 579 215 521 194 m 274 472 b 457 283 274 360 350 283 b 640 472 564 283 640 360 b 457 661 640 585 564 661 b 274 472 350 661 274 585 "},"$":{"ha":875,"x_min":0,"x_max":0,"o":"m 388 -4 b 97 278 196 18 107 154 l 208 278 b 390 90 213 188 253 103 l 390 428 l 353 438 b 111 693 221 474 111 551 b 388 949 111 832 224 933 l 388 1069 l 488 1069 l 488 949 b 778 667 679 926 768 790 l 667 667 b 485 854 663 757 622 842 l 485 517 l 522 507 b 764 251 654 471 764 393 b 488 -4 764 113 651 11 l 488 -125 l 388 -125 m 225 704 b 378 546 225 608 285 571 l 390 543 l 390 854 b 225 704 279 847 225 794 m 485 90 b 650 240 596 97 650 150 b 497 399 650 336 593 372 l 485 401 l 485 90 "},"€":{"ha":1115,"x_min":0,"x_max":0,"o":"m 660 -14 b 271 306 468 -14 322 103 l 90 306 l 90 394 l 256 394 b 251 472 253 419 251 446 b 256 550 251 499 253 525 l 90 550 l 90 639 l 271 639 b 660 958 322 842 468 958 b 1026 639 882 958 1004 803 l 911 639 b 660 857 892 767 806 857 b 385 639 519 857 422 774 l 765 639 l 743 550 l 369 550 b 367 500 368 533 367 517 l 367 444 b 369 394 367 428 368 411 l 711 394 l 689 306 l 385 306 b 660 88 422 171 519 88 b 911 306 806 88 892 178 l 1026 306 b 660 -14 1004 142 882 -14 "},"£":{"ha":835,"x_min":0,"x_max":0,"o":"m 76 94 l 215 94 b 267 258 274 121 279 193 l 240 385 l 90 385 l 90 474 l 222 474 l 194 607 b 467 958 160 774 249 958 b 751 660 632 958 749 851 l 650 660 b 463 861 647 807 565 861 b 300 635 328 861 274 765 l 333 474 l 621 474 l 621 385 l 351 385 l 361 338 b 294 94 386 215 364 135 l 758 94 l 758 0 l 76 0 "},"¥":{"ha":807,"x_min":0,"x_max":0,"o":"m 349 221 l 86 221 l 86 288 l 349 288 l 349 404 l 86 404 l 86 471 l 310 471 l 49 944 l 175 944 l 406 494 l 635 944 l 758 944 l 499 471 l 722 471 l 722 404 l 460 404 l 460 288 l 722 288 l 722 221 l 460 221 l 460 0 l 349 0 "},"≧":{"ha":833,"x_min":0,"x_max":0,"o":"m 83 372 l 83 479 l 656 665 l 83 851 l 83 958 l 750 735 l 750 596 m 83 92 l 750 92 l 750 0 l 83 0 m 83 285 l 750 285 l 750 193 l 83 193 "},"≦":{"ha":833,"x_min":0,"x_max":0,"o":"m 750 958 l 750 851 l 178 665 l 750 479 l 750 372 l 83 596 l 83 735 m 83 92 l 750 92 l 750 0 l 83 0 m 83 285 l 750 285 l 750 193 l 83 193 "},"+":{"ha":833,"x_min":0,"x_max":0,"o":"m 83 510 l 365 510 l 365 792 l 468 792 l 468 510 l 750 510 l 750 407 l 468 407 l 468 125 l 365 125 l 365 407 l 83 407 "},"−":{"ha":833,"x_min":0,"x_max":0,"o":"m 83 510 l 750 510 l 750 407 l 83 407 "},"×":{"ha":833,"x_min":0,"x_max":0,"o":"m 117 231 l 344 458 l 117 686 l 189 758 l 417 531 l 644 758 l 717 686 l 489 458 l 717 231 l 644 158 l 417 386 l 189 158 "},"÷":{"ha":833,"x_min":0,"x_max":0,"o":"m 83 510 l 750 510 l 750 407 l 83 407 m 347 264 l 486 264 l 486 125 l 347 125 m 347 792 l 486 792 l 486 653 l 347 653 "},"=":{"ha":833,"x_min":0,"x_max":0,"o":"m 83 635 l 750 635 l 750 532 l 83 532 m 83 357 l 750 357 l 750 254 l 83 254 "},"≠":{"ha":833,"x_min":0,"x_max":0,"o":"m 261 254 l 83 254 l 83 357 l 315 357 l 408 532 l 83 532 l 83 635 l 463 635 l 550 799 l 660 799 l 572 635 l 750 635 l 750 532 l 518 532 l 425 357 l 750 357 l 750 254 l 371 254 l 283 90 l 174 90 "},">":{"ha":833,"x_min":0,"x_max":0,"o":"m 83 815 l 750 524 l 750 365 l 83 74 l 83 190 l 678 444 l 83 699 "},"<":{"ha":833,"x_min":0,"x_max":0,"o":"m 156 444 l 750 190 l 750 74 l 83 365 l 83 524 l 750 815 l 750 699 "},"≥":{"ha":833,"x_min":0,"x_max":0,"o":"m 83 229 l 83 343 l 671 569 l 83 796 l 83 910 l 750 646 l 750 493 m 83 103 l 750 103 l 750 0 l 83 0 "},"≤":{"ha":833,"x_min":0,"x_max":0,"o":"m 750 910 l 750 796 l 163 569 l 750 343 l 750 229 l 83 493 l 83 646 m 83 103 l 750 103 l 750 0 l 83 0 "},"±":{"ha":833,"x_min":0,"x_max":0,"o":"m 83 103 l 750 103 l 750 0 l 83 0 m 83 621 l 365 621 l 365 903 l 468 903 l 468 621 l 750 621 l 750 518 l 468 518 l 468 236 l 365 236 l 365 518 l 83 518 "},"≈":{"ha":833,"x_min":0,"x_max":0,"o":"m 83 615 b 274 676 149 656 208 676 b 574 592 407 676 458 592 b 750 656 633 592 685 614 l 750 551 b 560 490 685 511 625 490 b 260 575 426 490 375 575 b 83 511 200 575 149 553 l 83 615 m 83 338 b 274 399 149 378 208 399 b 574 314 407 399 458 314 b 750 378 633 314 685 336 l 750 274 b 560 213 685 233 625 213 b 260 297 426 213 375 297 b 83 233 200 297 149 275 "},"~":{"ha":917,"x_min":0,"x_max":0,"o":"m 649 342 b 497 389 600 342 551 357 l 363 469 b 267 501 329 489 297 501 b 172 393 204 501 172 454 l 172 369 l 83 371 l 83 399 b 268 601 83 533 168 601 b 419 554 317 601 365 586 l 554 474 b 650 442 588 454 619 442 b 744 550 713 442 744 489 l 744 574 l 833 572 l 833 544 b 649 342 833 410 749 342 "},"¬":{"ha":833,"x_min":0,"x_max":0,"o":"m 83 510 l 750 510 l 750 213 l 647 213 l 647 407 l 83 407 "},"^":{"ha":739,"x_min":0,"x_max":0,"o":"m 432 1000 l 669 528 l 556 528 l 369 936 l 183 528 l 69 528 l 307 1000 "},"∞":{"ha":1167,"x_min":0,"x_max":0,"o":"m 850 236 b 574 414 743 236 675 311 b 313 236 479 315 419 236 b 90 465 192 236 90 338 b 317 694 90 593 192 694 b 593 517 424 694 492 619 b 854 694 688 615 747 694 b 1076 465 975 694 1076 593 b 850 236 1076 338 975 236 m 196 465 b 318 335 196 378 250 335 b 532 456 392 335 458 386 b 317 596 457 532 397 596 b 196 465 250 596 196 553 m 635 475 b 850 335 710 399 769 335 b 971 465 917 335 971 378 b 849 596 971 553 917 596 b 635 475 775 596 708 544 "},"∅":{"ha":1111,"x_min":0,"x_max":0,"o":"m 556 -14 b 253 89 440 -14 336 25 l 168 0 l 42 0 l 188 153 b 69 472 114 238 69 349 b 556 958 69 744 283 958 b 858 856 671 958 775 919 l 943 944 l 1069 944 l 924 792 b 1042 472 997 707 1042 596 b 556 -14 1042 200 828 -14 m 176 472 b 256 224 176 375 206 289 l 790 785 b 556 860 728 832 647 860 b 176 472 333 860 176 700 m 321 160 b 556 85 383 113 464 85 b 935 472 778 85 935 244 b 856 721 935 569 906 656 l 321 160 "},"∫":{"ha":421,"x_min":0,"x_max":0,"o":"m 233 61 b 22 -172 219 -111 140 -172 l -14 -172 l -14 -78 l 22 -78 b 124 29 93 -78 117 -57 l 188 814 b 399 1047 201 986 281 1047 l 435 1047 l 435 953 l 399 953 b 297 846 328 953 304 932 l 233 61 "},"Ω":{"ha":967,"x_min":0,"x_max":0,"o":"m 71 100 l 297 100 b 78 493 165 161 78 300 b 483 958 78 769 247 958 b 889 493 719 958 889 769 b 669 100 889 300 801 161 l 896 100 l 896 0 l 539 0 l 539 97 b 775 451 683 143 775 256 l 775 535 b 483 856 775 735 663 856 b 192 535 304 856 192 735 l 192 451 b 428 97 192 256 283 143 l 428 0 l 71 0 "},"∆":{"ha":972,"x_min":0,"x_max":0,"o":"m 69 97 l 411 944 l 561 944 l 903 97 l 903 0 l 69 0 m 789 97 l 486 878 l 183 97 "},"∏":{"ha":917,"x_min":0,"x_max":0,"o":"m 111 944 l 806 944 l 806 -139 l 697 -139 l 697 844 l 219 844 l 219 -139 l 111 -139 "},"∑":{"ha":799,"x_min":0,"x_max":0,"o":"m 69 944 l 729 944 l 729 847 l 196 847 l 521 431 l 521 375 l 196 -42 l 729 -42 l 729 -139 l 69 -139 l 69 -42 l 410 403 l 69 847 "},"√":{"ha":803,"x_min":0,"x_max":0,"o":"m 196 483 l 35 483 l 35 569 l 279 569 l 413 65 l 703 1083 l 817 1083 l 497 0 l 328 0 "},"∂":{"ha":814,"x_min":0,"x_max":0,"o":"m 400 -14 b 85 313 215 -14 85 122 b 376 622 85 496 213 622 b 615 457 497 622 586 553 l 615 486 b 275 856 615 747 501 856 l 211 856 l 211 958 l 275 958 b 729 479 533 958 729 806 l 729 424 b 400 -14 729 124 594 -14 m 199 306 b 400 89 199 160 279 89 b 608 321 540 89 608 199 b 407 528 608 454 532 528 b 199 306 279 528 199 449 "},"µ":{"ha":756,"x_min":0,"x_max":0,"o":"m 108 694 l 219 694 l 219 229 b 368 92 219 138 260 92 b 536 264 479 92 536 139 l 536 694 l 647 694 l 647 0 l 543 0 l 538 129 b 342 0 492 61 436 0 b 219 49 292 0 250 17 l 219 -275 l 108 -275 "},"%":{"ha":1100,"x_min":0,"x_max":0,"o":"m 772 944 l 889 944 l 325 0 l 208 0 m 69 722 b 272 951 69 858 154 951 b 475 722 390 951 475 858 b 272 493 475 586 390 493 b 69 722 154 493 69 586 m 167 708 b 272 579 167 631 207 579 b 378 708 338 579 378 631 l 378 736 b 272 865 378 814 338 865 b 167 736 207 865 167 814 l 167 708 m 625 222 b 828 451 625 358 710 451 b 1031 222 946 451 1031 358 b 828 -7 1031 86 946 -7 b 625 222 710 -7 625 86 m 722 208 b 828 79 722 131 763 79 b 933 208 893 79 933 131 l 933 236 b 828 365 933 314 893 365 b 722 236 763 365 722 314 l 722 208 "},"‰":{"ha":1572,"x_min":0,"x_max":0,"o":"m 772 944 l 889 944 l 325 0 l 208 0 m 69 722 b 272 951 69 858 154 951 b 475 722 390 951 475 858 b 272 493 475 586 390 493 b 69 722 154 493 69 586 m 167 708 b 272 579 167 631 207 579 b 378 708 338 579 378 631 l 378 736 b 272 865 378 814 338 865 b 167 736 207 865 167 814 l 167 708 m 625 222 b 828 451 625 358 710 451 b 1031 222 946 451 1031 358 b 828 -7 1031 86 946 -7 b 625 222 710 -7 625 86 m 722 208 b 828 79 722 131 763 79 b 933 208 893 79 933 131 l 933 236 b 828 365 933 314 893 365 b 722 236 763 365 722 314 l 722 208 m 1097 222 b 1300 451 1097 358 1182 451 b 1503 222 1418 451 1503 358 b 1300 -7 1503 86 1418 -7 b 1097 222 1182 -7 1097 86 m 1194 208 b 1300 79 1194 131 1235 79 b 1406 208 1365 79 1406 131 l 1406 236 b 1300 365 1406 314 1365 365 b 1194 236 1235 365 1194 314 l 1194 208 "},"↑":{"ha":1000,"x_min":0,"x_max":0,"o":"m 97 579 l 500 958 l 903 579 l 903 439 l 753 585 l 547 796 l 553 542 l 553 0 l 447 0 l 447 542 l 453 796 l 247 585 l 97 439 "},"↗":{"ha":1035,"x_min":0,"x_max":0,"o":"m 490 554 l 761 814 l 451 804 l 239 803 l 339 903 l 910 903 l 910 332 l 810 232 l 811 444 l 821 754 l 561 483 l 154 76 l 83 147 "},"→":{"ha":1153,"x_min":0,"x_max":0,"o":"m 697 224 l 914 431 l 625 425 l 111 425 l 111 519 l 625 519 l 914 514 l 697 721 l 549 875 l 690 875 l 1069 472 l 690 69 l 549 69 "},"↘":{"ha":1035,"x_min":0,"x_max":0,"o":"m 154 868 l 561 461 l 821 190 l 811 500 l 810 713 l 910 613 l 910 42 l 339 42 l 239 142 l 451 140 l 761 131 l 490 390 l 83 797 "},"↓":{"ha":1000,"x_min":0,"x_max":0,"o":"m 97 506 l 247 360 l 453 149 l 447 403 l 447 944 l 553 944 l 553 403 l 547 149 l 753 360 l 903 506 l 903 365 l 500 -14 l 97 365 "},"↙":{"ha":1035,"x_min":0,"x_max":0,"o":"m 125 613 l 225 713 l 224 500 l 214 190 l 474 461 l 881 868 l 951 797 l 544 390 l 274 131 l 583 140 l 796 142 l 696 42 l 125 42 "},"←":{"ha":1153,"x_min":0,"x_max":0,"o":"m 463 69 l 83 472 l 463 875 l 604 875 l 456 721 l 239 514 l 528 519 l 1042 519 l 1042 425 l 528 425 l 239 431 l 456 224 l 604 69 "},"↖":{"ha":1035,"x_min":0,"x_max":0,"o":"m 125 903 l 696 903 l 796 803 l 583 804 l 274 814 l 544 554 l 951 147 l 881 76 l 474 483 l 214 754 l 224 444 l 225 232 l 125 332 "},"↔":{"ha":1611,"x_min":0,"x_max":0,"o":"m 1156 224 l 1372 431 l 1083 425 l 528 425 l 239 431 l 456 224 l 604 69 l 463 69 l 83 472 l 463 875 l 604 875 l 456 721 l 239 514 l 528 519 l 1083 519 l 1372 514 l 1156 721 l 1007 875 l 1149 875 l 1528 472 l 1149 69 l 1007 69 "},"↕":{"ha":1000,"x_min":0,"x_max":0,"o":"m 97 297 l 247 151 l 453 -60 l 447 194 l 447 750 l 453 1004 l 247 793 l 97 647 l 97 788 l 500 1167 l 903 788 l 903 647 l 753 793 l 547 1004 l 553 750 l 553 194 l 547 -60 l 753 151 l 903 297 l 903 157 l 500 -222 l 97 157 "},"↩":{"ha":1543,"x_min":0,"x_max":0,"o":"m 528 244 l 239 250 l 456 43 l 604 -111 l 463 -111 l 83 292 l 463 694 l 604 694 l 456 540 l 239 333 l 528 339 l 1069 339 b 1360 597 1240 339 1360 426 b 1069 856 1360 768 1239 856 l 972 856 l 972 944 l 1069 944 b 1460 594 1296 944 1460 808 b 1069 244 1460 381 1296 244 "},"↪":{"ha":1543,"x_min":0,"x_max":0,"o":"m 474 244 b 83 594 247 244 83 381 b 474 944 83 808 247 944 l 571 944 l 571 856 l 474 856 b 183 597 304 856 183 768 b 474 339 183 426 303 339 l 1015 339 l 1304 333 l 1088 540 l 939 694 l 1081 694 l 1460 292 l 1081 -111 l 939 -111 l 1088 43 l 1304 250 l 1015 244 l 474 244 "},"↺":{"ha":1115,"x_min":0,"x_max":0,"o":"m 614 -14 b 196 404 376 -14 196 163 l 301 404 b 614 81 301 214 431 81 b 926 404 797 81 926 214 b 586 722 926 590 797 722 l 458 722 l 239 728 l 317 653 l 465 506 l 324 506 l 83 769 l 324 1033 l 465 1033 l 317 886 l 239 811 l 458 817 l 586 817 b 1032 404 851 817 1032 643 b 614 -14 1032 163 851 -14 "},"↻":{"ha":1115,"x_min":0,"x_max":0,"o":"m 501 -14 b 83 404 264 -14 83 163 b 529 817 83 643 264 817 l 657 817 l 876 811 l 799 886 l 650 1033 l 792 1033 l 1032 769 l 792 506 l 650 506 l 799 653 l 876 728 l 657 722 l 529 722 b 189 404 318 722 189 590 b 501 81 189 214 318 81 b 814 404 685 81 814 214 l 919 404 b 501 -14 919 163 739 -14 "},"⟵":{"ha":1472,"x_min":0,"x_max":0,"o":"m 463 875 l 604 875 l 456 721 l 239 514 l 528 519 l 1361 519 l 1361 425 l 528 425 l 239 431 l 456 224 l 604 69 l 463 69 l 83 472 "},"⟶":{"ha":1472,"x_min":0,"x_max":0,"o":"m 111 519 l 944 519 l 1233 514 l 1017 721 l 868 875 l 1010 875 l 1389 472 l 1010 69 l 868 69 l 1017 224 l 1233 431 l 944 425 l 111 425 "},"●":{"ha":1111,"x_min":0,"x_max":0,"o":"m 556 -14 b 69 472 283 -14 69 200 b 556 958 69 744 283 958 b 1042 472 828 958 1042 744 b 556 -14 1042 200 828 -14 "},"○":{"ha":1111,"x_min":0,"x_max":0,"o":"m 556 -14 b 69 472 283 -14 69 200 b 556 958 69 744 283 958 b 1042 472 828 958 1042 744 b 556 -14 1042 200 828 -14 m 176 472 b 556 85 176 244 333 85 b 935 472 778 85 935 244 b 556 860 935 700 778 860 b 176 472 333 860 176 700 "},"◆":{"ha":1083,"x_min":0,"x_max":0,"o":"m 1035 472 l 542 -21 l 49 472 l 542 965 "},"◇":{"ha":1083,"x_min":0,"x_max":0,"o":"m 49 472 l 542 965 l 1035 472 l 542 -21 m 542 129 l 885 472 l 542 815 l 199 472 "},"◊":{"ha":847,"x_min":0,"x_max":0,"o":"m 83 472 l 339 944 l 508 944 l 764 472 l 508 0 l 339 0 m 425 33 l 650 472 l 425 911 l 197 472 "},"■":{"ha":1139,"x_min":0,"x_max":0,"o":"m 1042 944 l 1042 0 l 97 0 l 97 944 "},"□":{"ha":1139,"x_min":0,"x_max":0,"o":"m 1042 944 l 1042 0 l 97 0 l 97 944 m 938 100 l 938 844 l 201 844 l 201 100 "},"▪":{"ha":861,"x_min":0,"x_max":0,"o":"m 778 694 l 778 0 l 83 0 l 83 694 "},"▫":{"ha":861,"x_min":0,"x_max":0,"o":"m 83 694 l 778 694 l 778 0 l 83 0 m 676 97 l 676 597 l 185 597 l 185 97 "},"◻":{"ha":1139,"x_min":0,"x_max":0,"o":"m 1042 944 l 1042 0 l 97 0 l 97 944 m 938 100 l 938 844 l 201 844 l 201 100 "},"◼":{"ha":1139,"x_min":0,"x_max":0,"o":"m 1042 944 l 1042 0 l 97 0 l 97 944 "},"▲":{"ha":1167,"x_min":0,"x_max":0,"o":"m 583 963 l 1139 0 l 28 0 "},"▶":{"ha":981,"x_min":0,"x_max":0,"o":"m 953 472 l 97 -21 l 97 965 "},"▼":{"ha":1167,"x_min":0,"x_max":0,"o":"m 1139 944 l 583 -18 l 28 944 "},"◀":{"ha":981,"x_min":0,"x_max":0,"o":"m 883 -21 l 28 472 l 883 965 "},"△":{"ha":1167,"x_min":0,"x_max":0,"o":"m 583 963 l 1139 0 l 28 0 m 953 107 l 583 747 l 214 107 "},"▷":{"ha":981,"x_min":0,"x_max":0,"o":"m 97 965 l 953 472 l 97 -21 m 740 472 l 204 782 l 204 163 "},"▽":{"ha":1167,"x_min":0,"x_max":0,"o":"m 1139 944 l 583 -18 l 28 944 m 583 197 l 953 838 l 214 838 "},"◁":{"ha":981,"x_min":0,"x_max":0,"o":"m 28 472 l 883 965 l 883 -21 m 776 163 l 776 782 l 240 472 "},"̈":{"ha":0,"x_min":0,"x_max":0,"o":"m 167 943 l 292 943 l 292 824 l 167 824 m 403 943 l 528 943 l 528 824 l 403 824 "},"̇":{"ha":0,"x_min":0,"x_max":0,"o":"m 274 974 l 421 974 l 421 832 l 274 832 "},"̀":{"ha":0,"x_min":0,"x_max":0,"o":"m 140 1014 l 260 1014 l 401 792 l 293 792 "},"́":{"ha":0,"x_min":0,"x_max":0,"o":"m 293 792 l 435 1014 l 554 1014 l 401 792 "},"̂":{"ha":0,"x_min":0,"x_max":0,"o":"m 417 1014 l 578 792 l 479 792 l 347 961 l 215 792 l 117 792 l 278 1014 "},"̊":{"ha":0,"x_min":0,"x_max":0,"o":"m 347 785 b 193 931 260 785 193 847 b 347 1076 193 1014 260 1076 b 501 931 435 1076 501 1014 b 347 785 501 847 435 785 m 271 931 b 347 854 271 881 297 854 b 424 931 397 854 424 881 b 347 1007 424 981 397 1007 b 271 931 297 1007 271 981 "},"̃":{"ha":0,"x_min":0,"x_max":0,"o":"m 450 818 b 346 856 401 818 372 836 l 314 879 b 244 910 293 894 271 910 b 178 822 206 910 181 878 l 110 822 b 244 988 113 924 154 988 b 349 950 293 988 322 969 l 381 926 b 450 896 401 911 424 896 b 517 983 489 896 514 928 l 585 983 b 450 818 582 882 540 818 "},"̧":{"ha":0,"x_min":0,"x_max":0,"o":"m 404 42 l 339 -53 b 496 -171 429 -56 496 -86 b 329 -292 496 -258 425 -292 l 253 -292 l 253 -214 l 326 -214 b 407 -167 365 -214 407 -208 b 326 -121 407 -126 365 -121 l 253 -121 l 253 -53 l 317 42 "},"̸":{"ha":0,"x_min":0,"x_max":0,"o":"m 782 750 l 157 -56 l 51 -56 l 676 750 "},"¨":{"ha":694,"x_min":0,"x_max":0,"o":"m 167 943 l 292 943 l 292 824 l 167 824 m 403 943 l 528 943 l 528 824 l 403 824 "},"˙":{"ha":694,"x_min":0,"x_max":0,"o":"m 274 974 l 421 974 l 421 832 l 274 832 "},"`":{"ha":694,"x_min":0,"x_max":0,"o":"m 140 1014 l 260 1014 l 401 792 l 293 792 "},"´":{"ha":694,"x_min":0,"x_max":0,"o":"m 293 792 l 435 1014 l 554 1014 l 401 792 "},"˝":{"ha":694,"x_min":0,"x_max":0,"o":"m 146 792 l 283 1014 l 396 1014 l 244 792 m 504 1014 l 617 1014 l 465 792 l 367 792 "},"ˆ":{"ha":694,"x_min":0,"x_max":0,"o":"m 417 1014 l 578 792 l 479 792 l 347 961 l 215 792 l 117 792 l 278 1014 "},"ˇ":{"ha":694,"x_min":0,"x_max":0,"o":"m 117 1014 l 215 1014 l 347 844 l 479 1014 l 578 1014 l 417 792 l 278 792 "},"˘":{"ha":694,"x_min":0,"x_max":0,"o":"m 347 785 b 132 1014 213 785 132 876 l 218 1014 b 347 868 218 921 264 868 b 476 1014 431 868 476 921 l 563 1014 b 347 785 563 876 482 785 "},"˚":{"ha":694,"x_min":0,"x_max":0,"o":"m 347 785 b 193 931 260 785 193 847 b 347 1076 193 1014 260 1076 b 501 931 435 1076 501 1014 b 347 785 501 847 435 785 m 271 931 b 347 854 271 881 297 854 b 424 931 397 854 424 881 b 347 1007 424 981 397 1007 b 271 931 297 1007 271 981 "},"˜":{"ha":694,"x_min":0,"x_max":0,"o":"m 450 818 b 346 856 401 818 372 836 l 314 879 b 244 910 293 894 271 910 b 178 822 206 910 181 878 l 110 822 b 244 988 113 924 154 988 b 349 950 293 988 322 969 l 381 926 b 450 896 401 911 424 896 b 517 983 489 896 514 928 l 585 983 b 450 818 582 882 540 818 "},"¯":{"ha":694,"x_min":0,"x_max":0,"o":"m 139 944 l 556 944 l 556 861 l 139 861 "},"¸":{"ha":694,"x_min":0,"x_max":0,"o":"m 404 42 l 339 -53 b 496 -171 429 -56 496 -86 b 329 -292 496 -258 425 -292 l 253 -292 l 253 -214 l 326 -214 b 407 -167 365 -214 407 -208 b 326 -121 407 -126 365 -121 l 253 -121 l 253 -53 l 317 42 "},"˛":{"ha":694,"x_min":0,"x_max":0,"o":"m 347 0 b 244 -111 283 -26 244 -64 b 333 -178 244 -162 290 -178 l 369 -178 l 369 -264 l 321 -264 b 153 -131 240 -264 153 -229 b 293 25 153 -40 233 8 l 347 0 "}}}
